<?xml version="1.0" encoding="UTF-8"?>
<!DOCTYPE svg PUBLIC "-//W3C//DTD SVG 1.1//EN" "http://www.w3.org/Graphics/SVG/1.1/DTD/svg11.dtd">
<!-- Creator: CorelDRAW X7 -->
<svg xmlns="http://www.w3.org/2000/svg" xml:space="preserve" width="34.9956mm" height="7.874mm" version="1.1" style="shape-rendering:geometricPrecision; text-rendering:geometricPrecision; image-rendering:optimizeQuality; fill-rule:evenodd; clip-rule:evenodd"
viewBox="0 0 1185 267"
 xmlns:xlink="http://www.w3.org/1999/xlink">
 <defs>
  <style type="text/css">
   <![CDATA[
    .fil0 {fill:#FEFEFE;fill-rule:nonzero}
   ]]>
  </style>
 </defs>
 <g id="Слой_x0020_1">
  <metadata id="CorelCorpID_0Corel-Layer"/>
  <path class="fil0" d="M120 0l26 0c-1,12 -4,21 -9,27 -5,6 -19,9 -40,9 -2,0 -5,0 -7,0l-5 0c-13,0 -23,1 -31,4 -8,3 -14,8 -19,16 -5,8 -8,21 -8,38 6,-10 13,-19 22,-24 10,-5 21,-8 33,-8 20,0 36,8 50,23 13,15 20,33 20,53 0,20 -7,38 -21,53 -14,15 -33,23 -56,23 -16,0 -30,-4 -42,-12 -12,-7 -20,-17 -25,-31 -5,-13 -8,-34 -8,-65 0,-36 7,-61 20,-77 13,-15 36,-23 69,-23l19 0c6,0 10,-2 12,-6zm-80 137c0,14 4,24 11,32 6,8 14,12 24,12 11,0 19,-4 26,-12 7,-8 10,-19 10,-32 0,-13 -3,-24 -10,-32 -7,-8 -15,-12 -25,-12 -10,0 -18,4 -25,12 -7,8 -11,19 -11,32zm136 -3c0,-13 3,-26 9,-38 7,-12 16,-22 28,-28 11,-7 25,-10 39,-10 23,0 41,7 55,22 15,15 22,33 22,56 0,22 -7,41 -22,56 -14,14 -33,22 -55,22 -13,0 -26,-3 -39,-9 -12,-7 -21,-16 -28,-28 -6,-11 -9,-26 -9,-43zm40 2c0,15 4,26 11,34 7,8 15,12 25,12 11,0 19,-4 26,-12 7,-8 11,-19 11,-34 0,-15 -4,-26 -11,-34 -7,-8 -15,-12 -26,-12 -10,0 -18,4 -25,12 -7,8 -11,19 -11,34zm143 -75l38 0 0 94 60 -94 39 0 0 149 -38 0 0 -95 -61 95 -38 0 0 -149zm93 -60l20 0c-1,13 -6,23 -14,30 -7,8 -18,11 -30,11 -12,0 -22,-3 -30,-11 -8,-7 -12,-17 -14,-30l20 0c0,7 3,12 7,15 4,4 9,5 17,5 8,0 13,-1 18,-5 4,-3 6,-8 6,-15zm95 60l131 0 0 149 -39 0 0 -117 -53 0 0 67c0,17 -2,29 -6,36 -4,7 -9,11 -13,13 -5,3 -13,4 -23,4 -7,0 -15,-1 -25,-3l0 -29c1,0 3,0 6,1 5,0 8,0 10,0 5,0 9,-2 10,-5 1,-4 2,-14 2,-30l0 -86zm253 102l40 7c-5,14 -13,25 -24,33 -11,7 -25,11 -41,11 -26,0 -45,-9 -57,-26 -10,-13 -15,-30 -15,-51 0,-25 6,-44 19,-58 13,-14 29,-21 49,-21 22,0 40,7 52,22 13,15 19,37 19,67l-99 0c1,12 4,21 10,28 6,6 13,9 22,9 7,0 12,-1 16,-5 4,-3 7,-8 9,-16zm3 -40c-1,-11 -3,-20 -9,-26 -6,-6 -12,-9 -20,-9 -9,0 -16,3 -22,10 -5,6 -8,15 -8,25l59 0zm70 -62l36 0 0 22c5,-7 12,-13 20,-18 8,-5 17,-7 27,-7 17,0 32,7 44,21 12,13 18,32 18,56 0,25 -6,44 -18,58 -13,14 -27,21 -45,21 -8,0 -15,-2 -22,-5 -7,-3 -14,-9 -21,-17l0 75 -39 0 0 -206zm38 72c0,17 4,30 10,38 7,8 15,12 24,12 10,0 17,-4 23,-11 6,-8 9,-20 9,-37 0,-15 -3,-27 -9,-34 -6,-8 -14,-12 -23,-12 -10,0 -18,4 -24,11 -6,8 -10,19 -10,33zm137 -72l38 0 0 94 60 -94 39 0 0 149 -38 0 0 -95 -61 95 -38 0 0 -149z"/>
 </g>
</svg>
