<?xml version="1.0" encoding="UTF-8"?>
<!DOCTYPE svg PUBLIC "-//W3C//DTD SVG 1.1//EN" "http://www.w3.org/Graphics/SVG/1.1/DTD/svg11.dtd">
<!-- Creator: CorelDRAW X7 -->
<svg xmlns="http://www.w3.org/2000/svg" xml:space="preserve" width="50.9286mm" height="6.21mm" version="1.1" style="shape-rendering:geometricPrecision; text-rendering:geometricPrecision; image-rendering:optimizeQuality; fill-rule:evenodd; clip-rule:evenodd"
viewBox="0 0 5093 621"
 xmlns:xlink="http://www.w3.org/1999/xlink">
 <defs>
  <style type="text/css">
   <![CDATA[
    .fil0 {fill:#FEFEFE;fill-rule:nonzero}
   ]]>
  </style>
 </defs>
 <g id="Слой_x0020_1">
  <metadata id="CorelCorpID_0Corel-Layer"/>
  <path class="fil0" d="M0 4l122 0 0 258c28,-3 47,-9 57,-21 8,-11 24,-43 44,-94 25,-66 50,-107 76,-123 25,-15 66,-24 123,-24 3,0 9,0 17,0l0 91 -17 0c-26,0 -44,2 -55,8 -12,6 -21,16 -28,28 -7,14 -18,39 -32,79 -7,22 -16,39 -24,52 -9,15 -24,28 -46,41 27,7 49,23 68,46 17,23 36,56 57,99l83 166 -144 0 -72 -156c-1,-3 -4,-6 -8,-12 -1,-3 -6,-13 -14,-28 -16,-31 -28,-49 -38,-57 -11,-7 -26,-11 -47,-12l0 265 -122 0 0 -606 0 0zm487 381c0,-39 10,-75 28,-112 20,-36 47,-64 81,-82 35,-20 74,-30 117,-30 66,0 121,23 163,65 43,43 64,98 64,164 0,66 -21,121 -64,165 -43,44 -97,66 -163,66 -39,0 -78,-9 -115,-28 -35,-17 -63,-44 -83,-79 -18,-36 -28,-78 -28,-129l0 0zm120 6c0,45 10,78 30,101 21,23 47,34 76,34 31,0 57,-11 77,-34 20,-23 31,-58 31,-102 0,-43 -11,-76 -31,-99 -21,-23 -46,-34 -77,-34 -29,0 -55,11 -76,34 -20,23 -30,56 -30,101l0 -1zm351 -220l396 0 0 94 -140 0 0 345 -115 0 0 -345 -141 0 0 -94 0 0 0 0zm487 0l389 0 0 439 -116 0 0 -345 -158 0 0 197c0,51 -6,86 -17,107 -13,19 -25,33 -39,39 -14,6 -37,10 -68,10 -18,0 -43,-3 -73,-8l0 -85c2,0 8,1 19,1 13,1 21,1 29,1 15,0 25,-5 29,-16 2,-9 5,-39 5,-85l0 -255 0 0 0 0zm503 0l111 0 0 276 179 -276 115 0 0 439 -112 0 0 -280 -182 280 -111 0 0 -439zm753 0l297 0 0 94 -181 0 0 345 -116 0 0 -439 0 0zm444 135l-105 -18c12,-43 33,-75 61,-96 30,-19 72,-30 130,-30 51,0 90,6 116,18 25,12 43,28 53,46 11,20 16,54 16,104l-2 136c0,38 2,67 5,86 4,18 11,38 21,58l-115 0c-4,-7 -7,-19 -11,-34 -2,-6 -4,-11 -5,-13 -19,19 -40,34 -62,44 -23,10 -48,14 -72,14 -46,0 -81,-12 -107,-36 -27,-25 -39,-56 -39,-93 0,-25 6,-48 17,-66 12,-20 28,-34 50,-46 21,-9 53,-19 92,-26 55,-10 92,-20 114,-29l0 -12c0,-22 -6,-38 -17,-47 -11,-10 -32,-15 -63,-15 -20,0 -36,3 -49,12 -11,9 -20,23 -28,43l0 0zm157 94c-16,5 -39,11 -71,18 -33,7 -54,14 -64,20 -14,11 -22,24 -22,42 0,15 5,30 17,41 13,12 29,19 47,19 21,0 41,-8 60,-21 15,-11 23,-24 28,-39 2,-10 5,-29 5,-57l0 -23 0 0zm356 31l0 -75c21,0 35,-1 44,-5 8,-2 17,-8 26,-18 8,-11 12,-22 12,-36 0,-13 -5,-27 -15,-38 -10,-12 -26,-18 -45,-18 -16,0 -29,4 -42,10 -12,7 -23,22 -33,48l-98 -22c10,-38 31,-68 64,-86 32,-20 70,-29 111,-29 53,0 93,12 123,36 29,25 44,55 44,92 0,23 -6,42 -20,56 -12,16 -32,30 -59,43 32,9 57,22 73,40 16,18 24,41 24,66 0,35 -16,64 -48,90 -31,24 -78,36 -138,36 -104,0 -169,-41 -192,-122l107 -19c17,42 45,63 84,63 22,0 39,-6 53,-17 13,-11 19,-24 19,-40 0,-17 -7,-31 -21,-41 -13,-9 -32,-14 -54,-14l-19 0 0 0 0 0zm254 -46c0,-39 10,-75 30,-112 18,-36 45,-64 80,-82 35,-20 74,-30 117,-30 66,0 121,23 164,65 41,43 63,98 63,164 0,66 -22,121 -65,165 -42,44 -96,66 -161,66 -40,0 -78,-9 -115,-28 -37,-17 -65,-44 -83,-79 -20,-36 -30,-78 -30,-129l0 0zm120 6c0,45 10,78 31,101 21,23 46,34 77,34 29,0 55,-11 76,-34 21,-23 30,-58 30,-102 0,-43 -9,-76 -30,-99 -21,-23 -47,-34 -76,-34 -31,0 -56,11 -77,34 -21,23 -31,56 -31,101l0 -1zm426 -220l254 0c53,0 91,9 118,28 26,20 38,48 38,87 0,25 -6,46 -21,64 -15,18 -32,30 -54,37 31,7 53,20 69,41 14,21 22,43 22,67 0,35 -13,62 -38,84 -25,20 -63,31 -112,31l-276 0 0 -439 0 0 0 0zm116 183l75 0c37,0 62,-4 79,-14 16,-8 25,-23 25,-43 0,-18 -9,-32 -23,-40 -15,-7 -42,-11 -81,-11l-75 0 0 108 0 0zm0 182l92 0c33,0 57,-4 73,-12 15,-8 22,-22 22,-43 0,-22 -8,-37 -25,-44 -17,-9 -52,-12 -102,-12l-60 0 0 111 0 0zm403 -425l0 -107 116 0 0 107 -116 0zm0 499l0 -439 116 0 0 439 -116 0z"/>
 </g>
</svg>
