<?xml version="1.0" encoding="UTF-8"?>
<!DOCTYPE svg PUBLIC "-//W3C//DTD SVG 1.1//EN" "http://www.w3.org/Graphics/SVG/1.1/DTD/svg11.dtd">
<!-- Creator: CorelDRAW X7 -->
<svg xmlns="http://www.w3.org/2000/svg" xml:space="preserve" width="61.8414mm" height="14.8101mm" version="1.1" style="shape-rendering:geometricPrecision; text-rendering:geometricPrecision; image-rendering:optimizeQuality; fill-rule:evenodd; clip-rule:evenodd"
viewBox="0 0 6184 1481"
 xmlns:xlink="http://www.w3.org/1999/xlink">
 <defs>
  <style type="text/css">
   <![CDATA[
    .fil0 {fill:#FEFEFE;fill-rule:nonzero}
   ]]>
  </style>
 </defs>
 <g id="Слой_x0020_1">
  <metadata id="CorelCorpID_0Corel-Layer"/>
  <path class="fil0" d="M0 874l397 0 0 94 -140 0 0 346 -116 0 0 -346 -141 0 0 -94 0 0 0 0zm468 0l254 0c53,0 92,9 117,29 26,19 40,48 40,86 0,25 -7,46 -23,64 -13,19 -30,31 -53,36 32,8 53,22 69,42 15,21 22,43 22,67 0,34 -12,63 -38,83 -25,23 -63,33 -112,33l-276 0 0 -440 0 0 0 0 0 0zm116 183l75 0c38,0 63,-4 80,-14 15,-8 24,-24 24,-43 0,-18 -9,-32 -22,-39 -16,-8 -43,-12 -82,-12l-75 0 0 108 0 0zm0 182l92 0c34,0 58,-3 73,-12 16,-8 22,-22 22,-43 0,-22 -8,-36 -25,-44 -17,-9 -51,-12 -102,-12l-60 0 0 111 0 0zm647 -65l116 21c-15,42 -39,75 -71,96 -33,23 -72,33 -120,33 -76,0 -134,-24 -170,-75 -29,-39 -44,-90 -44,-152 0,-71 20,-129 57,-170 38,-41 87,-63 145,-63 65,0 116,22 153,65 38,44 57,111 55,199l-289 0c0,34 10,61 27,80 18,21 41,29 66,29 19,0 34,-5 46,-15 12,-9 23,-26 29,-48l0 0 0 0zm5 -117c0,-32 -9,-60 -26,-77 -15,-17 -35,-25 -59,-25 -26,0 -46,8 -63,27 -17,18 -24,44 -24,75l172 0zm208 -183l109 0 0 65c13,-22 32,-41 56,-55 24,-13 51,-20 80,-20 51,0 94,20 130,61 35,40 52,96 52,168 0,73 -17,130 -52,171 -36,40 -81,60 -132,60 -23,0 -46,-3 -64,-14 -21,-10 -41,-25 -63,-49l0 220 -116 0 0 -607 0 0 0 0 0 0zm114 213c0,50 10,85 29,109 20,24 44,36 71,36 27,0 50,-10 69,-32 17,-22 25,-58 25,-107 0,-47 -8,-81 -27,-103 -19,-22 -41,-34 -68,-34 -29,0 -53,12 -72,34 -19,20 -27,54 -27,97l0 0zm747 227l-332 0 0 116 -93 0 0 -211 48 0c18,-23 35,-57 47,-105 14,-45 22,-125 24,-240l354 0 0 345 48 0 0 211 -96 0 0 -116 0 0zm-66 -95l0 -249 -141 0c-6,121 -24,204 -58,249l199 0 0 0zm215 -130c0,-39 8,-77 28,-113 19,-35 47,-64 81,-83 36,-19 73,-29 117,-29 66,0 119,22 162,65 42,44 64,98 64,165 0,67 -22,121 -64,165 -43,45 -97,65 -162,65 -41,0 -78,-9 -115,-27 -36,-17 -64,-44 -83,-80 -20,-34 -28,-79 -28,-128l0 0 0 0zm119 5c0,44 10,78 30,101 21,24 47,35 77,35 31,0 56,-11 77,-35 20,-23 30,-57 30,-101 0,-42 -10,-77 -30,-99 -21,-23 -46,-36 -77,-36 -30,0 -56,13 -77,36 -20,23 -30,57 -30,99zm418 -220l392 0 0 440 -117 0 0 -346 -157 0 0 346 -118 0 0 -440 0 0zm603 135l-103 -17c11,-44 32,-75 61,-95 29,-21 71,-33 127,-33 53,0 92,7 117,19 25,12 44,29 54,48 10,18 15,52 15,103l-1 135c0,39 1,68 5,85 3,19 10,39 20,60l-114 0c-4,-9 -7,-19 -12,-34 -1,-7 -3,-12 -3,-14 -21,21 -41,34 -64,44 -23,11 -47,14 -73,14 -44,0 -80,-12 -105,-36 -27,-25 -39,-56 -39,-93 0,-24 5,-46 17,-67 12,-18 29,-34 49,-44 22,-10 53,-19 94,-27 53,-11 91,-19 112,-30l0 -10c0,-24 -5,-39 -17,-49 -10,-10 -32,-13 -63,-13 -20,0 -36,3 -48,11 -12,9 -20,23 -29,43l0 0 0 0zm157 95c-15,6 -39,10 -72,17 -32,7 -52,14 -62,21 -16,10 -23,24 -23,41 0,17 6,30 19,42 12,12 28,17 46,17 20,0 41,-6 60,-20 13,-10 24,-24 27,-39 3,-9 5,-28 5,-56l0 -23 0 0 0 0zm260 -230l389 0 0 440 -116 0 0 -346 -158 0 0 198c0,51 -6,85 -17,105 -12,20 -24,34 -40,41 -13,7 -35,9 -68,9 -17,0 -42,-2 -73,-7l0 -85c4,0 11,0 21,0 11,1 20,1 27,1 17,0 25,-5 29,-15 3,-10 6,-39 6,-87l0 -254 0 0 0 0 0 0zm503 0l113 0 0 276 178 -276 114 0 0 440 -112 0 0 -281 -180 281 -113 0 0 -440zm524 0l256 0c51,0 90,9 115,29 28,19 40,48 40,86 0,25 -7,46 -21,64 -15,19 -32,31 -54,36 30,8 52,22 68,42 15,21 22,43 22,67 0,34 -12,63 -38,83 -25,23 -62,33 -110,33l-278 0 0 -440 0 0 0 0zm116 183l75 0c37,0 63,-4 80,-14 15,-8 24,-24 24,-43 0,-18 -7,-32 -22,-39 -15,-8 -43,-12 -82,-12l-75 0 0 108 0 0zm0 182l92 0c34,0 58,-3 73,-12 15,-8 24,-22 24,-43 0,-22 -10,-36 -27,-44 -17,-9 -51,-12 -102,-12l-60 0 0 111 0 0 0 0zm399 -365l115 0 0 161 169 0 0 -161 115 0 0 440 -115 0 0 -184 -169 0 0 184 -115 0 0 -440zm516 -59l0 -107 115 0 0 107 -115 0zm0 499l0 -440 115 0 0 440 -115 0z"/>
  <path class="fil0" d="M2185 10l115 0 0 179c19,-2 33,-7 41,-17 9,-10 19,-31 29,-63 16,-44 33,-71 50,-83 17,-13 40,-19 69,-19 9,0 24,2 46,3l0 77c-30,0 -51,2 -58,9 -10,4 -19,23 -29,54 -13,39 -32,65 -58,73 36,10 68,43 92,97 2,2 4,5 6,8l64 122 -124 0 -58 -128c-12,-26 -22,-43 -31,-49 -8,-7 -22,-11 -39,-11l0 188 -115 0 0 -440 0 0 0 0 0 0zm390 215c0,-40 10,-77 28,-112 19,-36 47,-65 82,-84 34,-19 73,-29 116,-29 66,0 121,22 164,65 42,44 62,99 62,165 0,66 -20,121 -62,165 -45,44 -98,65 -162,65 -41,0 -81,-9 -116,-28 -36,-17 -65,-44 -84,-80 -19,-34 -28,-78 -28,-127l0 0 0 0zm119 5c0,44 10,78 32,100 20,24 46,36 75,36 30,0 56,-12 77,-36 20,-22 30,-56 30,-100 0,-43 -10,-77 -30,-99 -21,-24 -47,-35 -77,-35 -29,0 -55,11 -75,35 -22,22 -32,56 -32,99zm352 -220l397 0 0 94 -141 0 0 346 -116 0 0 -346 -140 0 0 -94 0 0 0 0 0 0zm487 0l388 0 0 440 -116 0 0 -346 -158 0 0 197c0,51 -5,85 -17,106 -12,21 -24,34 -37,41 -16,6 -38,8 -68,8 -19,0 -45,-2 -74,-6l0 -86c2,0 9,0 19,0 12,2 22,2 29,2 15,0 26,-5 29,-15 4,-10 5,-40 5,-87l0 -254 0 0 0 0zm502 0l113 0 0 276 178 -276 115 0 0 440 -113 0 0 -282 -180 282 -113 0 0 -440z"/>
 </g>
</svg>
