<?xml version="1.0" encoding="UTF-8"?>
<!DOCTYPE svg PUBLIC "-//W3C//DTD SVG 1.1//EN" "http://www.w3.org/Graphics/SVG/1.1/DTD/svg11.dtd">
<!-- Creator: CorelDRAW X7 -->
<svg xmlns="http://www.w3.org/2000/svg" xml:space="preserve" width="61.8414mm" height="23.3115mm" version="1.1" style="shape-rendering:geometricPrecision; text-rendering:geometricPrecision; image-rendering:optimizeQuality; fill-rule:evenodd; clip-rule:evenodd"
viewBox="0 0 6184 2331"
 xmlns:xlink="http://www.w3.org/1999/xlink">
 <defs>
  <style type="text/css">
   <![CDATA[
    .fil0 {fill:#FEFEFE;fill-rule:nonzero}
    .fil1 {fill:#FFED00;fill-rule:nonzero}
   ]]>
  </style>
 </defs>
 <g id="Слой_x0020_1">
  <metadata id="CorelCorpID_0Corel-Layer"/>
  <path class="fil0" d="M0 874l397 0 0 94 -140 0 0 346 -116 0 0 -346 -141 0 0 -94 0 0zm468 0l254 0c53,0 92,9 117,29 26,19 40,48 40,86 0,25 -7,46 -23,64 -13,19 -30,31 -53,36 32,8 53,22 69,42 15,21 22,43 22,67 0,34 -12,63 -38,83 -25,23 -63,33 -112,33l-276 0 0 -440 0 0 0 0zm116 183l75 0c38,0 63,-4 80,-14 15,-8 24,-24 24,-43 0,-18 -9,-32 -22,-39 -16,-8 -43,-12 -82,-12l-75 0 0 108 0 0zm0 182l92 0c34,0 58,-3 73,-12 16,-8 22,-22 22,-43 0,-22 -8,-36 -25,-44 -17,-9 -51,-12 -102,-12l-60 0 0 111 0 0zm647 -65l116 21c-15,42 -39,75 -71,96 -33,23 -72,33 -120,33 -76,0 -134,-24 -170,-75 -29,-39 -44,-90 -44,-152 0,-71 20,-129 57,-170 38,-41 87,-63 145,-63 65,0 116,22 153,65 38,44 57,111 55,199l-289 0c0,34 10,61 27,80 18,21 41,29 66,29 19,0 34,-5 46,-15 12,-9 23,-26 29,-48l0 0zm5 -117c0,-32 -9,-60 -26,-77 -15,-17 -35,-25 -59,-25 -26,0 -46,8 -63,27 -17,18 -24,44 -24,75l172 0zm208 -183l109 0 0 65c13,-22 32,-41 56,-55 24,-13 51,-20 80,-20 51,0 94,20 130,61 35,40 52,96 52,168 0,73 -17,130 -52,171 -36,40 -81,60 -132,60 -23,0 -46,-3 -64,-14 -21,-10 -41,-25 -63,-49l0 220 -116 0 0 -607 0 0 0 0zm114 213c0,50 10,85 29,109 20,24 44,36 71,36 27,0 50,-10 69,-32 17,-22 25,-58 25,-107 0,-47 -8,-81 -27,-103 -19,-22 -41,-34 -68,-34 -29,0 -53,12 -72,34 -19,20 -27,54 -27,97l0 0zm747 227l-332 0 0 116 -93 0 0 -211 48 0c18,-23 35,-57 47,-105 14,-45 22,-125 24,-240l354 0 0 345 48 0 0 211 -96 0 0 -116 0 0zm-66 -95l0 -249 -141 0c-6,121 -24,204 -58,249l199 0 0 0zm215 -130c0,-39 8,-77 28,-113 19,-35 47,-64 81,-83 36,-19 73,-29 117,-29 66,0 119,22 162,65 42,44 64,98 64,165 0,67 -22,121 -64,165 -43,45 -97,65 -162,65 -41,0 -78,-9 -115,-27 -36,-17 -64,-44 -83,-80 -20,-34 -28,-79 -28,-128l0 0 0 0zm119 5c0,44 10,78 30,101 21,24 47,35 77,35 31,0 56,-11 77,-35 20,-23 30,-57 30,-101 0,-42 -10,-77 -30,-99 -21,-23 -46,-36 -77,-36 -30,0 -56,13 -77,36 -20,23 -30,57 -30,99zm418 -220l392 0 0 440 -117 0 0 -346 -157 0 0 346 -118 0 0 -440zm603 135l-103 -17c11,-44 32,-75 61,-95 29,-21 71,-33 127,-33 53,0 92,7 117,19 25,12 44,29 54,48 10,18 15,52 15,103l-1 135c0,39 1,68 5,85 3,19 10,39 20,60l-114 0c-4,-9 -7,-19 -12,-34 -1,-7 -3,-12 -3,-14 -21,21 -41,34 -64,44 -23,11 -47,14 -73,14 -44,0 -80,-12 -105,-36 -27,-25 -39,-56 -39,-93 0,-24 5,-46 17,-67 12,-18 29,-34 49,-44 22,-10 53,-19 94,-27 53,-11 91,-19 112,-30l0 -10c0,-24 -5,-39 -17,-49 -10,-10 -32,-13 -63,-13 -20,0 -36,3 -48,11 -12,9 -20,23 -29,43l0 0 0 0zm157 95c-15,6 -39,10 -72,17 -32,7 -52,14 -62,21 -16,10 -23,24 -23,41 0,17 6,30 19,42 12,12 28,17 46,17 20,0 41,-6 60,-20 13,-10 24,-24 27,-39 3,-9 5,-28 5,-56l0 -23 0 0 0 0zm260 -230l389 0 0 440 -116 0 0 -346 -158 0 0 198c0,51 -6,85 -17,105 -12,20 -24,34 -40,41 -13,7 -35,9 -68,9 -17,0 -42,-2 -73,-7l0 -85c4,0 11,0 21,0 11,1 20,1 27,1 17,0 25,-5 29,-15 3,-10 6,-39 6,-87l0 -254 0 0 0 0zm503 0l113 0 0 276 178 -276 114 0 0 440 -112 0 0 -281 -180 281 -113 0 0 -440zm524 0l256 0c51,0 90,9 115,29 28,19 40,48 40,86 0,25 -7,46 -21,64 -15,19 -32,31 -54,36 30,8 52,22 68,42 15,21 22,43 22,67 0,34 -12,63 -38,83 -25,23 -62,33 -110,33l-278 0 0 -440 0 0zm116 183l75 0c37,0 63,-4 80,-14 15,-8 24,-24 24,-43 0,-18 -7,-32 -22,-39 -15,-8 -43,-12 -82,-12l-75 0 0 108 0 0zm0 182l92 0c34,0 58,-3 73,-12 15,-8 24,-22 24,-43 0,-22 -10,-36 -27,-44 -17,-9 -51,-12 -102,-12l-60 0 0 111 0 0 0 0zm399 -365l115 0 0 161 169 0 0 -161 115 0 0 440 -115 0 0 -184 -169 0 0 184 -115 0 0 -440zm516 -59l0 -107 115 0 0 107 -115 0zm0 499l0 -440 115 0 0 440 -115 0z"/>
  <path class="fil0" d="M2185 10l115 0 0 179c19,-2 33,-7 41,-17 9,-10 19,-31 29,-63 16,-44 33,-71 50,-83 17,-13 40,-19 69,-19 9,0 24,2 46,3l0 77c-30,0 -51,2 -58,9 -10,4 -19,23 -29,54 -13,39 -32,65 -58,73 36,10 68,43 92,97 2,2 4,5 6,8l64 122 -124 0 -58 -128c-12,-26 -22,-43 -31,-49 -8,-7 -22,-11 -39,-11l0 188 -115 0 0 -440 0 0 0 0zm390 215c0,-40 10,-77 28,-112 19,-36 47,-65 82,-84 34,-19 73,-29 116,-29 66,0 121,22 164,65 42,44 62,99 62,165 0,66 -20,121 -62,165 -45,44 -98,65 -162,65 -41,0 -81,-9 -116,-28 -36,-17 -65,-44 -84,-80 -19,-34 -28,-78 -28,-127l0 0 0 0zm119 5c0,44 10,78 32,100 20,24 46,36 75,36 30,0 56,-12 77,-36 20,-22 30,-56 30,-100 0,-43 -10,-77 -30,-99 -21,-24 -47,-35 -77,-35 -29,0 -55,11 -75,35 -22,22 -32,56 -32,99zm352 -220l397 0 0 94 -141 0 0 346 -116 0 0 -346 -140 0 0 -94 0 0 0 0zm487 0l388 0 0 440 -116 0 0 -346 -158 0 0 197c0,51 -5,85 -17,106 -12,21 -24,34 -37,41 -16,6 -38,8 -68,8 -19,0 -45,-2 -74,-6l0 -86c2,0 9,0 19,0 12,2 22,2 29,2 15,0 26,-5 29,-15 4,-10 5,-40 5,-87l0 -254 0 0zm502 0l113 0 0 276 178 -276 115 0 0 440 -113 0 0 -282 -180 282 -113 0 0 -440z"/>
  <path class="fil1" d="M960 1824l118 0 0 69c44,-54 94,-79 156,-79 30,0 57,6 80,19 25,14 44,33 58,60 23,-27 45,-46 70,-60 25,-13 52,-19 80,-19 37,0 68,8 92,22 26,15 44,36 56,65 10,20 14,55 14,103l0 314 -131 0 0 -282c0,-50 -4,-80 -13,-94 -12,-18 -30,-28 -56,-28 -17,0 -34,5 -51,17 -16,11 -27,27 -35,48 -8,23 -11,55 -11,103l0 236 -130 0 0 -270c0,-48 -3,-79 -6,-92 -6,-15 -14,-25 -23,-32 -10,-6 -23,-10 -38,-10 -21,0 -39,5 -56,15 -15,12 -27,27 -34,48 -6,21 -10,54 -10,101l0 240 -130 0 0 -494 0 0zm1141 339l130 21c-17,47 -44,84 -80,109 -35,25 -81,38 -134,38 -86,0 -150,-29 -192,-84 -32,-46 -47,-102 -47,-170 0,-83 21,-148 62,-194 43,-46 98,-69 163,-69 73,0 131,25 175,73 42,48 60,123 59,222l-326 0c0,40 12,69 31,92 21,21 46,32 75,32 21,0 38,-5 51,-17 16,-11 25,-29 33,-53l0 0 0 0zm7 -132c-1,-39 -11,-68 -30,-86 -17,-21 -40,-31 -67,-31 -29,0 -52,10 -71,31 -17,21 -27,49 -27,86l195 0 0 0zm462 -207l0 103 -90 0 0 201c0,41 2,65 2,71 2,6 6,11 13,17 6,4 13,6 21,6 13,0 31,-4 54,-12l9 102c-29,12 -63,19 -101,19 -25,0 -46,-4 -65,-12 -17,-9 -33,-18 -40,-32 -10,-12 -15,-29 -20,-50 -1,-15 -3,-45 -3,-94l0 -216 -60 0 0 -103 60 0 0 -97 130 -77 0 174 90 0 0 0zm188 153l-117 -21c13,-48 36,-84 68,-107 33,-23 81,-35 144,-35 59,0 102,6 130,22 29,13 50,30 61,51 12,21 18,59 18,117l-2 153c0,42 2,74 5,96 4,21 12,42 23,65l-128 0c-4,-8 -7,-21 -13,-38 -2,-8 -4,-12 -4,-16 -23,23 -46,38 -73,50 -25,11 -52,17 -80,17 -50,0 -90,-13 -119,-42 -30,-27 -44,-61 -44,-103 0,-29 6,-54 19,-75 14,-23 33,-40 56,-52 25,-11 59,-20 105,-28 60,-12 104,-24 126,-33l0 -13c0,-25 -5,-44 -19,-56 -11,-10 -36,-15 -70,-15 -24,0 -41,4 -54,13 -14,10 -23,27 -32,50l0 0zm175 105c-17,6 -44,12 -80,19 -36,10 -59,16 -71,23 -17,14 -24,29 -24,46 0,19 5,35 21,48 13,13 30,21 51,21 23,0 46,-9 67,-25 15,-11 27,-25 31,-42 4,-12 5,-32 5,-63l0 -27 0 0zm257 236l0 -682 130 0 0 682 -130 0zm249 -182l0 -130 256 0 0 130 -256 0zm276 -312l72 0 0 -36c0,-43 4,-73 14,-94 7,-21 24,-37 47,-50 26,-14 56,-19 92,-19 37,0 73,5 109,17l-17 90c-21,-5 -42,-8 -61,-8 -19,0 -32,4 -42,14 -8,9 -11,27 -11,51l0 35 97 0 0 103 -97 0 0 391 -131 0 0 -391 -72 0 0 -103 0 0zm471 153l-120 -21c14,-48 37,-84 70,-107 32,-23 82,-35 145,-35 58,0 102,6 130,22 29,13 48,30 60,51 13,21 19,59 19,117l-2 153c0,42 2,74 5,96 4,21 12,42 23,65l-130 0c-2,-8 -8,-21 -11,-38 -2,-8 -4,-12 -6,-16 -21,23 -46,38 -71,50 -25,11 -52,17 -80,17 -52,0 -92,-13 -120,-42 -29,-27 -45,-61 -45,-103 0,-29 8,-54 21,-75 14,-23 31,-40 56,-52 24,-11 59,-20 103,-28 62,-12 104,-24 127,-33l0 -13c0,-25 -6,-44 -18,-56 -13,-10 -36,-15 -70,-15 -24,0 -42,4 -54,13 -14,10 -25,27 -32,50l0 0 0 0zm174 105c-16,6 -43,12 -79,19 -36,10 -59,16 -71,23 -17,14 -27,29 -27,46 0,19 8,35 21,48 14,13 31,21 52,21 25,0 46,-9 69,-25 15,-11 25,-25 31,-42 4,-12 4,-32 4,-63l0 -27 0 0zm687 -111l-128 23c-5,-26 -14,-46 -29,-57 -15,-13 -35,-19 -59,-19 -33,0 -60,9 -79,32 -19,23 -29,62 -29,113 0,59 10,100 29,124 21,26 46,37 80,37 25,0 44,-8 60,-21 17,-14 27,-38 34,-73l129 21c-14,59 -39,103 -77,134 -38,31 -88,46 -151,46 -73,0 -131,-23 -175,-69 -42,-46 -63,-109 -63,-189 0,-83 21,-146 65,-192 42,-44 100,-67 174,-67 60,0 108,14 144,39 35,27 59,65 74,118l1 0zm228 -335l0 253c42,-50 93,-75 153,-75 30,0 57,6 80,17 25,10 44,25 56,43 13,17 21,36 24,57 6,21 8,54 8,98l0 289 -130 0 0 -261c0,-51 -4,-84 -8,-97 -6,-14 -13,-25 -26,-35 -14,-7 -29,-11 -48,-11 -21,0 -43,5 -60,15 -17,12 -28,27 -36,48 -10,21 -13,53 -13,94l0 247 -131 0 0 -682 131 0 0 0 0 0z"/>
 </g>
</svg>
