<?xml version="1.0" encoding="UTF-8"?>
<!DOCTYPE svg PUBLIC "-//W3C//DTD SVG 1.1//EN" "http://www.w3.org/Graphics/SVG/1.1/DTD/svg11.dtd">
<!-- Creator: CorelDRAW X7 -->
<svg xmlns="http://www.w3.org/2000/svg" xml:space="preserve" width="50mm" height="11.9744mm" version="1.1" style="shape-rendering:geometricPrecision; text-rendering:geometricPrecision; image-rendering:optimizeQuality; fill-rule:evenodd; clip-rule:evenodd"
viewBox="0 0 5000 1197"
 xmlns:xlink="http://www.w3.org/1999/xlink">
 <defs>
  <style type="text/css">
   <![CDATA[
    .fil0 {fill:#FEFEFE;fill-rule:nonzero}
   ]]>
  </style>
 </defs>
 <g id="Слой_x0020_1">
  <metadata id="CorelCorpID_0Corel-Layer"/>
  <path class="fil0" d="M0 707l321 0 0 76 -113 0 0 279 -94 0 0 -279 -114 0 0 -76 0 0 0 0zm378 0l206 0c43,0 74,7 94,23 21,15 33,39 33,70 0,20 -6,37 -19,51 -10,16 -24,25 -43,29 26,7 43,18 56,34 12,17 18,35 18,55 0,27 -10,51 -31,67 -20,18 -51,26 -90,26l-224 0 0 -355 0 0 0 0 0 0zm94 148l61 0c31,0 51,-4 65,-12 12,-6 19,-19 19,-34 0,-15 -7,-26 -18,-32 -13,-6 -35,-10 -66,-10l-61 0 0 88 0 0zm0 147l75 0c27,0 46,-3 59,-10 13,-6 17,-18 17,-35 0,-17 -6,-29 -20,-35 -14,-8 -41,-10 -82,-10l-49 0 0 90 0 0zm523 -53l94 17c-12,34 -31,61 -57,78 -27,18 -59,27 -97,27 -62,0 -109,-20 -138,-61 -23,-32 -35,-73 -35,-123 0,-57 16,-104 46,-137 30,-34 70,-51 117,-51 53,0 94,17 124,52 30,36 46,90 44,161l-234 0c0,28 9,49 22,65 15,17 33,23 54,23 15,0 27,-4 37,-12 10,-7 18,-21 23,-39l0 0 0 0zm4 -94c0,-26 -7,-49 -21,-63 -12,-13 -28,-20 -47,-20 -21,0 -38,7 -51,22 -14,15 -20,36 -20,61l139 0zm169 -148l88 0 0 52c10,-18 26,-33 45,-44 19,-11 41,-16 65,-16 41,0 76,16 105,49 28,32 42,78 42,136 0,59 -14,105 -42,138 -29,32 -66,49 -107,49 -19,0 -37,-3 -52,-12 -17,-8 -33,-20 -51,-39l0 177 -93 0 0 -490 0 0 0 0 0 0zm92 172c0,40 8,69 23,88 16,19 36,29 58,29 21,0 40,-8 55,-26 14,-18 21,-47 21,-86 0,-38 -7,-66 -22,-84 -16,-17 -33,-27 -55,-27 -24,0 -43,10 -58,27 -16,17 -22,44 -22,79l0 0zm604 183l-269 0 0 94 -75 0 0 -170 39 0c14,-19 28,-46 38,-85 11,-37 18,-101 19,-194l286 0 0 279 39 0 0 170 -77 0 0 -94 0 0zm-54 -76l0 -202 -114 0c-5,98 -19,165 -47,202l161 0 0 0zm174 -106c0,-31 7,-62 23,-91 15,-28 38,-52 65,-67 29,-15 59,-23 95,-23 53,0 96,17 131,52 34,36 52,79 52,134 0,54 -18,97 -52,133 -35,36 -79,53 -131,53 -33,0 -63,-8 -93,-22 -29,-14 -52,-36 -67,-65 -16,-27 -23,-64 -23,-104l0 0 0 0zm96 5c0,35 8,63 25,81 17,20 38,29 62,29 25,0 45,-9 62,-29 16,-18 24,-46 24,-81 0,-34 -8,-63 -24,-81 -17,-18 -37,-29 -62,-29 -24,0 -45,11 -62,29 -17,19 -25,47 -25,81zm338 -178l317 0 0 355 -94 0 0 -279 -127 0 0 279 -96 0 0 -355 0 0zm488 109l-83 -14c9,-36 25,-61 49,-77 23,-17 57,-26 103,-26 42,0 74,5 94,15 20,10 36,23 44,39 8,14 12,42 12,83l-1 109c0,32 1,55 4,69 3,15 8,31 16,48l-92 0c-3,-7 -5,-15 -9,-27 -1,-6 -3,-10 -3,-11 -17,17 -33,27 -52,35 -18,9 -38,12 -59,12 -35,0 -64,-10 -85,-30 -21,-20 -31,-45 -31,-75 0,-19 4,-37 14,-54 9,-15 23,-27 39,-36 18,-8 43,-15 76,-21 43,-9 74,-16 91,-25l0 -8c0,-19 -4,-31 -14,-39 -8,-8 -26,-11 -51,-11 -16,0 -29,3 -39,9 -9,7 -16,19 -23,35l0 0 0 0zm127 77c-12,4 -32,8 -58,13 -26,6 -42,12 -51,17 -12,8 -18,20 -18,34 0,13 5,24 15,33 10,10 23,14 37,14 17,0 34,-5 49,-16 10,-8 19,-19 22,-31 2,-8 4,-23 4,-46l0 -18 0 0 0 0zm210 -186l315 0 0 355 -94 0 0 -279 -128 0 0 160c0,41 -5,68 -14,85 -9,16 -19,27 -32,33 -11,5 -28,7 -55,7 -14,0 -34,-2 -59,-6l0 -68c3,0 9,0 17,0 9,1 16,1 22,1 14,0 20,-5 23,-13 3,-8 5,-31 5,-70l0 -205 0 0 0 0 0 0zm407 0l91 0 0 223 144 -223 92 0 0 355 -90 0 0 -227 -146 227 -91 0 0 -355zm423 0l207 0c42,0 73,7 93,23 23,15 33,39 33,70 0,20 -6,37 -17,51 -12,16 -26,25 -44,29 24,7 42,18 55,34 12,17 18,35 18,55 0,27 -10,51 -31,67 -20,18 -50,26 -89,26l-225 0 0 -355 0 0 0 0zm94 148l61 0c30,0 51,-4 65,-12 12,-6 19,-19 19,-34 0,-15 -6,-26 -18,-32 -12,-6 -35,-10 -66,-10l-61 0 0 88 0 0zm0 147l75 0c27,0 46,-3 59,-10 12,-6 19,-18 19,-35 0,-17 -8,-29 -22,-35 -14,-8 -41,-10 -82,-10l-49 0 0 90 0 0 0 0zm323 -295l93 0 0 130 136 0 0 -130 93 0 0 355 -93 0 0 -148 -136 0 0 148 -93 0 0 -355zm417 -48l0 -87 93 0 0 87 -93 0zm0 403l0 -355 93 0 0 355 -93 0z"/>
  <path class="fil0" d="M1767 8l93 0 0 145c15,-2 26,-6 33,-14 7,-8 15,-25 23,-51 13,-35 27,-57 41,-67 13,-10 32,-15 55,-15 8,0 20,1 38,2l0 62c-25,0 -42,2 -47,8 -8,3 -16,18 -24,43 -10,32 -26,53 -47,59 30,8 55,35 75,79 1,1 3,4 5,6l51 99 -100 0 -47 -104c-9,-21 -18,-34 -25,-39 -6,-6 -18,-9 -31,-9l0 152 -93 0 0 -356 0 0 0 0 0 0zm315 174c0,-32 8,-62 23,-91 15,-29 38,-52 66,-68 27,-15 59,-23 94,-23 53,0 98,18 132,53 34,35 50,80 50,133 0,53 -16,98 -50,133 -36,36 -79,53 -131,53 -33,0 -65,-7 -93,-23 -30,-13 -53,-35 -68,-64 -16,-28 -23,-63 -23,-103l0 0 0 0zm96 4c0,36 8,63 26,81 16,19 37,29 61,29 24,0 45,-10 62,-29 16,-18 24,-45 24,-81 0,-35 -8,-62 -24,-80 -17,-19 -38,-28 -62,-28 -24,0 -45,9 -61,28 -18,18 -26,45 -26,80zm285 -178l321 0 0 76 -114 0 0 280 -94 0 0 -280 -113 0 0 -76 0 0 0 0 0 0zm394 0l313 0 0 356 -94 0 0 -280 -127 0 0 159c0,42 -4,69 -14,86 -10,17 -19,28 -30,33 -13,5 -31,7 -55,7 -15,0 -36,-2 -60,-5l0 -70c2,0 8,0 16,0 9,2 17,2 23,2 12,0 21,-4 24,-12 3,-8 4,-33 4,-71l0 -205 0 0 0 0zm405 0l92 0 0 223 144 -223 93 0 0 356 -92 0 0 -228 -145 228 -92 0 0 -356z"/>
 </g>
</svg>
