<?xml version="1.0" encoding="UTF-8"?>
<!DOCTYPE svg PUBLIC "-//W3C//DTD SVG 1.1//EN" "http://www.w3.org/Graphics/SVG/1.1/DTD/svg11.dtd">
<!-- Creator: CorelDRAW X7 -->
<svg xmlns="http://www.w3.org/2000/svg" xml:space="preserve" width="164.86mm" height="32.8941mm" version="1.1" style="shape-rendering:geometricPrecision; text-rendering:geometricPrecision; image-rendering:optimizeQuality; fill-rule:evenodd; clip-rule:evenodd"
viewBox="0 0 16780 3348"
 xmlns:xlink="http://www.w3.org/1999/xlink">
 <defs>
  <style type="text/css">
   <![CDATA[
    .fil1 {fill:#2E3B97}
    .fil2 {fill:#E02626}
    .fil4 {fill:#FAFAFA}
    .fil3 {fill:#FAFEFD}
    .fil0 {fill:#FDFCFA}
   ]]>
  </style>
 </defs>
 <g id="Слой_x0020_1">
  <metadata id="CorelCorpID_0Corel-Layer"/>
  <path class="fil0" d="M7769 2351c1,-361 2,-724 -1,-1084 -1,-186 -5,-346 189,-354 190,-8 208,135 208,310l4 1064c149,1 443,-34 541,48 124,105 81,318 -103,346 -125,18 -443,5 -587,4 -243,-3 -251,-108 -251,-334zm-1123 -1084c0,-188 5,-377 225,-354 202,21 174,221 174,397l3 974c231,16 654,-82 607,237 -37,244 -475,163 -696,163 -282,-1 -313,-52 -313,-333l0 -1084zm-6422 -109c0,-147 49,-254 209,-245 164,9 184,125 184,289l0 1171c0,182 -40,367 -264,301 -159,-46 -129,-238 -129,-410 1,-368 0,-737 0,-1106zm5216 1149c-25,69 -83,255 -125,307 -71,85 -222,97 -299,10 -120,-134 55,-462 116,-626 76,-206 151,-412 227,-620 76,-209 120,-460 364,-468 276,-10 308,238 389,468 71,201 148,406 217,607 53,155 240,523 111,648 -85,81 -243,57 -302,-26 -37,-53 -90,-224 -115,-299l-583 -1zm4426 -325c110,-68 611,-52 790,-81 161,-26 590,-151 693,-147 84,285 -218,1175 -379,1297 -146,-17 -127,-122 -225,-152 -71,-22 -185,42 -269,65 -588,163 -730,-4 -1058,-254 -70,-53 -131,-108 -206,-162 -47,-34 -140,-124 -180,-143 71,0 163,50 253,70 286,62 694,-76 832,-189 -59,-81 -228,-218 -251,-304zm5660 -1043c249,-78 518,10 687,136 566,422 409,1380 -261,1577 -1038,304 -1532,-1367 -426,-1713zm-5965 1369c-752,52 -653,-793 -322,-1077 93,13 106,48 149,100 45,53 71,76 118,121 342,322 224,212 108,517 -48,124 -45,198 -53,339zm-8631 -1041c0,-180 23,-438 275,-342 75,29 237,256 291,320 78,94 490,626 555,665 1,-217 -24,-625 3,-817 36,-248 394,-266 395,65l0 1193c0,107 16,195 -52,271 -53,59 -149,84 -236,42 -55,-27 -234,-260 -287,-324 -94,-112 -472,-598 -546,-657l0 711c0,400 -396,397 -397,0l-1 -1127zm12594 22c0,-379 47,-378 416,-377 290,0 459,-18 645,144 139,123 241,319 190,572 -52,263 -206,327 -328,419 52,98 205,211 287,313 117,144 7,334 -164,322 -186,-13 -474,-492 -650,-553 -1,256 49,598 -237,551 -172,-28 -159,-177 -159,-351l0 -1040zm-1063 1084c-1,100 13,207 -70,271 -84,63 -205,46 -267,-16 -97,-98 -56,-477 -56,-646 -1,-923 -101,-1072 333,-1071 236,1 441,-28 628,75 344,190 393,660 142,920 -208,215 -417,180 -707,189l-3 278zm-9385 -884c129,67 265,29 435,126 375,214 376,846 -98,1028 -245,94 -780,-9 -748,-290 19,-164 172,-204 338,-123 118,58 323,94 372,-62 25,-79 -4,-165 -58,-207 -65,-49 -144,-35 -235,-49 -151,-24 -268,-117 -332,-208 -200,-283 -51,-620 194,-747 226,-116 786,-69 767,222 -14,217 -200,189 -354,133 -171,-61 -338,-18 -281,177zm800 -465c72,-176 384,-119 590,-119 217,0 551,-53 618,114 118,291 -200,278 -406,287l0 1110c0,155 -31,262 -191,267 -148,5 -205,-101 -205,-245l1 -1121c-114,-32 -237,9 -325,-40 -73,-42 -126,-143 -82,-253zm6075 -489c113,-39 200,-143 351,-197 148,-53 290,-62 452,-28 487,100 427,361 401,604 -282,-22 -581,46 -762,185 44,72 111,116 123,211 -160,12 -334,-14 -501,-6 -109,6 -324,60 -411,28 -107,-165 41,-856 108,-1018 125,22 111,144 239,221zm1760 555c92,165 127,642 -47,741 -74,-34 -159,-176 -218,-260 -44,-63 -170,-225 -198,-281 -53,-109 42,-244 73,-368 44,-175 29,-238 15,-420 74,58 313,477 375,588zm-2068 -1085c-47,7 -31,34 -71,59 -84,50 -88,51 -131,151l-112 343c-19,112 20,74 -43,152l-127 155c-255,409 -138,176 -278,589 -32,92 -75,187 -80,289 -13,298 35,304 -237,304 -42,0 -107,-62 -126,-91 -104,-159 73,-815 -119,-1074 -132,-179 -354,-231 -556,-133l-70 38c-64,53 -16,4 -52,77 -137,279 -96,496 -96,815 0,237 66,368 -174,368 -131,0 -87,-241 -87,-368 1,-158 5,-322 1,-478 -2,-85 -57,-315 -92,-363 -95,-128 -381,-167 -528,-104l-44 22c-4,2 -10,4 -14,7 -93,50 -116,244 -211,244 -332,0 -126,-85 -358,-228 -141,-88 -362,-112 -514,-37 -177,87 -233,98 -410,7 -176,-90 -850,-46 -1082,-46 -149,0 -117,65 -346,65 -307,0 -323,-217 -733,-39 -494,214 -407,-26 -655,-26 -82,0 -158,1 -229,31 -6,3 -23,12 -29,15 -52,24 -50,8 -92,60 -146,179 12,219 -300,219 -64,0 -84,-52 -106,-89 -46,-83 -112,-147 -200,-190 -242,-120 -410,19 -475,19 -405,0 -233,-65 -477,-65 -97,0 -150,28 -228,75 -103,62 -162,225 -162,359l0 1344c0,121 56,221 134,300 285,285 516,25 560,25 107,0 161,10 263,62 127,66 261,49 384,-21 255,-146 42,-258 393,-258 67,0 176,145 222,191 310,310 582,-17 646,-17 91,0 100,8 192,45 36,15 85,32 130,44 364,106 428,47 744,-107 178,-87 118,-156 343,-156 92,0 112,174 241,236 22,10 44,21 73,36 108,55 202,63 312,7 84,-43 132,-62 219,-62 68,0 205,109 304,109 121,0 330,-97 381,-270 46,-158 105,-121 248,-121 57,0 59,28 84,68l116 187c58,78 222,136 320,136 47,0 166,-44 347,-44 118,0 120,44 238,44l521 0c105,0 188,-44 325,-44 118,0 120,44 238,44 237,0 553,47 763,-62 439,-227 313,-7 643,152 198,95 102,86 401,184 418,136 768,14 901,74 102,46 158,85 284,85 146,0 145,3 220,-76 70,-80 68,-78 117,-173 37,-73 67,-131 101,-202 98,-207 93,-351 364,-351 98,0 141,176 199,235 61,61 44,52 134,83 161,56 205,54 364,-11 75,-31 96,-59 132,-129l85 -175c91,-265 -91,-171 217,-260 107,-32 317,-109 391,36 32,61 13,98 18,177 6,99 48,138 83,220 26,59 32,78 94,102 197,76 203,137 426,22 246,-127 242,-104 484,0 227,96 314,72 509,-69 106,-76 87,-58 225,-58 66,0 186,88 257,112 318,105 412,110 748,-16 180,-68 286,-205 421,-339 86,-85 221,-430 221,-559 0,-182 -31,-378 -94,-556 -43,-119 -103,-220 -182,-317 -19,-23 -97,-100 -120,-118 -92,-69 -401,-223 -514,-223 -309,0 -507,13 -754,200l-244 82 -249 -163c-59,-29 -90,-45 -144,-73 -177,-89 -570,-46 -777,-46 -177,0 -271,152 -347,152 -250,0 -125,-30 -295,-96 -258,-100 -560,-56 -833,-56 -151,0 -84,65 -390,65 -92,0 -104,-110 -156,-169 -163,-183 -344,-318 -572,-403 -527,-197 -561,-57 -1071,-57 -52,0 -72,-34 -128,-67 -72,-43 -71,-61 -118,-66l-98 -6 -51 5z"/>
  <path class="fil1" d="M930 1267l1 1127c1,397 397,400 397,0l0 -711c74,59 452,545 546,657 53,64 232,297 287,324 87,42 183,17 236,-42 68,-76 52,-164 52,-271l0 -1193c-1,-331 -359,-313 -395,-65 -27,192 -2,600 -3,817 -65,-39 -477,-571 -555,-665 -54,-64 -216,-291 -291,-320 -252,-96 -275,162 -275,342z"/>
  <path class="fil2" d="M9866 1982c23,86 192,223 251,304 -138,113 -546,251 -832,189 -90,-20 -182,-70 -253,-70 40,19 133,109 180,143 75,54 136,109 206,162 328,250 470,417 1058,254 84,-23 198,-87 269,-65 98,30 79,135 225,152 161,-122 463,-1012 379,-1297 -103,-4 -532,121 -693,147 -179,29 -680,13 -790,81z"/>
  <path class="fil2" d="M13921 1312c213,-19 472,-32 469,193 -3,218 -258,203 -469,188l0 -381zm-397 -23l0 1040c0,174 -13,323 159,351 286,47 236,-295 237,-551 176,61 464,540 650,553 171,12 281,-178 164,-322 -82,-102 -235,-215 -287,-313 122,-92 276,-156 328,-419 51,-253 -51,-449 -190,-572 -186,-162 -355,-144 -645,-144 -369,-1 -416,-2 -416,377z"/>
  <path class="fil2" d="M15598 1338c261,-110 487,103 542,306 74,277 -65,542 -272,617 -525,192 -839,-684 -270,-923zm-72 -399c-1106,346 -612,2017 426,1713 670,-197 827,-1155 261,-1577 -169,-126 -438,-214 -687,-136z"/>
  <path class="fil1" d="M5725 1525c67,70 132,273 144,385l-280 -4 136 -381zm-285 782l583 1c25,75 78,246 115,299 59,83 217,107 302,26 129,-125 -58,-493 -111,-648 -69,-201 -146,-406 -217,-607 -81,-230 -113,-478 -389,-468 -244,8 -288,259 -364,468 -76,208 -151,414 -227,620 -61,164 -236,492 -116,626 77,87 228,75 299,-10 42,-52 100,-238 125,-307z"/>
  <path class="fil2" d="M12470 1692l-6 -381 175 -6 44 1c169,-1 318,115 223,292 -67,122 -273,110 -436,94zm-9 681l3 -278c290,-9 499,26 707,-189 251,-260 202,-730 -142,-920 -187,-103 -392,-74 -628,-75 -434,-1 -334,148 -333,1071 0,169 -41,548 56,646 62,62 183,79 267,16 83,-64 69,-171 70,-271z"/>
  <path class="fil1" d="M3076 1489c-57,-195 110,-238 281,-177 154,56 340,84 354,-133 19,-291 -541,-338 -767,-222 -245,127 -394,464 -194,747 64,91 181,184 332,208 91,14 170,0 235,49 54,42 83,128 58,207 -49,156 -254,120 -372,62 -166,-81 -319,-41 -338,123 -32,281 503,384 748,290 474,-182 473,-814 98,-1028 -170,-97 -306,-59 -435,-126z"/>
  <path class="fil1" d="M9951 535c-128,-77 -114,-199 -239,-221 -67,162 -215,853 -108,1018 87,32 302,-22 411,-28 167,-8 341,18 501,6 -12,-95 -79,-139 -123,-211 181,-139 480,-207 762,-185 26,-243 86,-504 -401,-604 -162,-34 -304,-25 -452,28 -151,54 -238,158 -351,197z"/>
  <path class="fil1" d="M4283 1317l-1 1121c0,144 57,250 205,245 160,-5 191,-112 191,-267l0 -1110c206,-9 524,4 406,-287 -67,-167 -401,-114 -618,-114 -206,0 -518,-57 -590,119 -44,110 9,211 82,253 88,49 211,8 325,40z"/>
  <path class="fil1" d="M6646 1267l0 1084c0,281 31,332 313,333 221,0 659,81 696,-163 47,-319 -376,-221 -607,-237l-3 -974c0,-176 28,-376 -174,-397 -220,-23 -225,166 -225,354z"/>
  <path class="fil1" d="M7769 2351c0,226 8,331 251,334 144,1 462,14 587,-4 184,-28 227,-241 103,-346 -98,-82 -392,-47 -541,-48l-4 -1064c0,-175 -18,-318 -208,-310 -194,8 -190,168 -189,354 3,360 2,723 1,1084z"/>
  <path class="fil3" d="M15598 1338c-569,239 -255,1115 270,923 207,-75 346,-340 272,-617 -55,-203 -281,-416 -542,-306z"/>
  <path class="fil1" d="M224 1158c0,369 1,738 0,1106 0,172 -30,364 129,410 224,66 264,-119 264,-301l0 -1171c0,-164 -20,-280 -184,-289 -160,-9 -209,98 -209,245z"/>
  <path class="fil1" d="M9561 2308c8,-141 5,-215 53,-339 116,-305 234,-195 -108,-517 -47,-45 -73,-68 -118,-121 -43,-52 -56,-87 -149,-100 -331,284 -430,1129 322,1077z"/>
  <path class="fil2" d="M11664 1831c174,-99 139,-576 47,-741 -62,-111 -301,-530 -375,-588 14,182 29,245 -15,420 -31,124 -126,259 -73,368 28,56 154,218 198,281 59,84 144,226 218,260z"/>
  <path class="fil4" d="M13921 1693c211,15 466,30 469,-188 3,-225 -256,-212 -469,-193l0 381z"/>
  <path class="fil4" d="M12470 1692c163,16 369,28 436,-94 95,-177 -54,-293 -223,-292l-44 -1 -175 6 6 381z"/>
  <path class="fil4" d="M5589 1906l280 4c-12,-112 -77,-315 -144,-385l-136 381z"/>
 </g>
</svg>
