<?xml version="1.0" encoding="UTF-8"?>
<!DOCTYPE svg PUBLIC "-//W3C//DTD SVG 1.1//EN" "http://www.w3.org/Graphics/SVG/1.1/DTD/svg11.dtd">
<!-- Creator: CorelDRAW X7 -->
<svg xmlns="http://www.w3.org/2000/svg" xml:space="preserve" width="27.3601mm" height="6.0621mm" version="1.1" style="shape-rendering:geometricPrecision; text-rendering:geometricPrecision; image-rendering:optimizeQuality; fill-rule:evenodd; clip-rule:evenodd"
viewBox="0 0 788 174"
 xmlns:xlink="http://www.w3.org/1999/xlink">
 <defs>
  <style type="text/css">
   <![CDATA[
    .fil0 {fill:#FEFEFE;fill-rule:nonzero}
   ]]>
  </style>
 </defs>
 <g id="Слой_x0020_1">
  <metadata id="CorelCorpID_0Corel-Layer"/>
  <path class="fil0" d="M0 132l0 -89c0,-14 4,-24 11,-32 7,-7 17,-11 30,-11 13,0 23,4 30,11 7,8 10,18 10,32l0 89c0,13 -3,24 -10,31 -7,8 -17,11 -30,11 -13,0 -23,-3 -30,-11 -7,-7 -11,-18 -11,-31zm27 1c0,11 4,17 14,17 9,0 14,-6 14,-17l0 -92c0,-11 -5,-17 -14,-17 -10,0 -14,6 -14,17l0 92zm72 40l0 -171 84 0 0 171 -27 0 0 -147 -30 0 0 147 -27 0zm97 0l27 -171 41 0 27 171 -27 0 -4 -31 -33 0 -5 31 -26 0zm35 -55l25 0 -13 -85 -12 85zm64 55l0 -25c3,0 5,0 7,0 2,0 3,-1 5,-2 1,-2 2,-3 3,-6 0,-2 1,-5 1,-9l3 -129 77 0 0 171 -27 0 0 -147 -23 0 -3 103c-1,16 -4,27 -10,34 -6,6 -16,10 -29,10l-4 0zm116 0l0 -171 74 0 0 24 -47 0 0 48 37 0 0 24 -37 0 0 50 47 0 0 25 -74 0zm90 0l0 -171 27 0 0 73 30 0 0 -73 27 0 0 171 -27 0 0 -74 -30 0 0 74 -27 0zm104 0l0 -171 27 0 0 73 30 0 0 -73 27 0 0 171 -27 0 0 -74 -30 0 0 74 -27 0zm100 0c1,-5 2,-12 2,-21l0 -26c0,-10 1,-18 4,-24 3,-6 7,-10 14,-13 -12,-5 -18,-17 -18,-34l0 -14c0,-13 4,-23 10,-29 6,-7 16,-10 30,-10l41 0 0 171 -27 0 0 -70 -10 0c-6,0 -10,2 -13,5 -3,3 -4,9 -4,17l0 27c0,4 0,8 -1,10 0,3 0,5 0,6 0,1 -1,3 -2,5l-26 0zm29 -112c0,6 1,11 4,14 3,2 7,4 12,4l11 0 0 -53 -13 0c-5,0 -8,2 -11,5 -2,2 -3,7 -3,13l0 17z"/>
 </g>
</svg>
