<?xml version="1.0" encoding="UTF-8"?>
<!DOCTYPE svg PUBLIC "-//W3C//DTD SVG 1.1//EN" "http://www.w3.org/Graphics/SVG/1.1/DTD/svg11.dtd">
<!-- Creator: CorelDRAW X7 -->
<svg xmlns="http://www.w3.org/2000/svg" xml:space="preserve" width="62.6109mm" height="17.2989mm" version="1.1" style="shape-rendering:geometricPrecision; text-rendering:geometricPrecision; image-rendering:optimizeQuality; fill-rule:evenodd; clip-rule:evenodd"
viewBox="0 0 6261 1730"
 xmlns:xlink="http://www.w3.org/1999/xlink">
 <defs>
  <style type="text/css">
   <![CDATA[
    .fil0 {fill:#FEFEFE;fill-rule:nonzero}
    .fil1 {fill:#FFED00;fill-rule:nonzero}
   ]]>
  </style>
 </defs>
 <g id="Слой_x0020_1">
  <metadata id="CorelCorpID_0Corel-Layer"/>
  <path class="fil0" d="M1105 167l108 0 0 64c14,-22 33,-39 56,-53 25,-14 51,-20 81,-20 51,0 94,20 130,60 36,40 53,96 53,167 0,73 -18,130 -53,171 -36,41 -80,61 -131,61 -25,0 -46,-5 -66,-15 -20,-8 -41,-26 -62,-49l0 220 -116 0 0 -606 0 0zm113 213c0,49 10,85 30,109 20,24 44,36 71,36 28,0 50,-11 67,-32 19,-23 28,-57 28,-107 0,-46 -10,-81 -28,-103 -18,-23 -41,-34 -68,-34 -29,0 -52,11 -71,34 -19,21 -29,53 -29,97zm493 -78l-104 -18c11,-44 32,-75 61,-96 28,-20 72,-30 129,-30 51,0 90,5 116,17 25,13 42,29 53,48 10,18 15,53 15,103l-1 136c0,38 1,67 5,86 4,18 11,37 21,58l-116 0c-2,-7 -6,-19 -11,-34 -1,-7 -2,-11 -4,-13 -19,20 -41,33 -63,43 -22,10 -46,15 -72,15 -45,0 -81,-12 -106,-37 -26,-24 -40,-55 -40,-92 0,-25 6,-47 19,-67 11,-19 27,-34 50,-44 21,-11 51,-20 92,-27 53,-10 92,-20 112,-29l0 -12c0,-23 -5,-39 -16,-48 -12,-10 -33,-15 -63,-15 -21,0 -37,4 -48,13 -13,9 -21,22 -29,43l0 0zm156 94c-15,5 -38,11 -70,18 -32,7 -53,14 -63,20 -15,12 -23,25 -23,41 0,17 5,30 18,43 12,11 27,17 46,17 21,0 41,-7 61,-21 13,-10 22,-22 27,-39 3,-8 4,-28 4,-56l0 -23 0 0zm592 210l-332 0 0 116 -95 0 0 -211 48 0c19,-22 36,-57 49,-103 13,-47 20,-128 23,-241l354 0 0 345 48 0 0 210 -95 0 0 -116 0 0zm-67 -95l0 -248 -141 0c-5,122 -23,204 -58,248l199 0zm241 -404l0 -107 116 0 0 107 -116 0zm0 499l0 -439 116 0 0 439 -116 0zm323 -304l-106 -18c12,-44 32,-75 61,-96 30,-20 72,-30 129,-30 53,0 91,5 116,17 25,13 44,29 54,48 10,18 16,53 16,103l-3 136c0,38 3,67 6,86 4,18 10,37 20,58l-114 0c-4,-7 -8,-19 -11,-34 -3,-7 -4,-11 -5,-13 -19,20 -40,33 -64,43 -22,10 -46,15 -71,15 -46,0 -81,-12 -107,-37 -26,-24 -38,-55 -38,-92 0,-25 5,-47 17,-67 11,-19 29,-34 50,-44 21,-11 52,-20 92,-27 55,-10 92,-20 113,-29l0 -12c0,-23 -6,-39 -17,-48 -11,-10 -31,-15 -62,-15 -22,0 -38,4 -49,13 -11,9 -21,22 -27,43l0 0zm155 94c-15,5 -38,11 -71,18 -32,7 -53,14 -63,20 -15,12 -23,25 -23,41 0,17 7,30 18,43 12,11 28,17 47,17 20,0 41,-7 60,-21 14,-10 24,-22 27,-39 3,-8 5,-28 5,-56l0 -23 0 0zm176 -229l397 0 0 94 -141 0 0 345 -116 0 0 -345 -140 0 0 -94zm429 214c0,-39 9,-76 29,-112 18,-36 46,-64 81,-82 34,-20 73,-29 117,-29 66,0 120,21 163,65 42,42 63,97 63,163 0,67 -21,122 -65,165 -42,44 -97,66 -161,66 -40,0 -79,-8 -115,-27 -37,-19 -65,-45 -83,-80 -20,-36 -29,-78 -29,-129l0 0zm120 6c0,44 10,77 31,101 20,22 46,35 76,35 29,0 56,-13 75,-35 22,-24 32,-57 32,-101 0,-44 -10,-77 -32,-100 -19,-23 -46,-34 -75,-34 -30,0 -56,11 -76,34 -21,23 -31,56 -31,100zm421 -220l109 0 0 64c13,-22 32,-39 56,-53 25,-14 51,-20 81,-20 51,0 93,20 129,60 35,40 54,96 54,167 0,73 -19,130 -54,171 -36,41 -80,61 -131,61 -25,0 -46,-5 -66,-15 -20,-8 -41,-26 -62,-49l0 220 -116 0 0 -606 0 0zm114 213c0,49 10,85 30,109 19,24 43,36 71,36 27,0 49,-11 67,-32 18,-23 27,-57 27,-107 0,-46 -10,-81 -27,-103 -19,-23 -43,-34 -69,-34 -28,0 -52,11 -71,34 -18,21 -28,53 -28,97zm403 -213l112 0 0 276 178 -276 114 0 0 439 -112 0 0 -280 -180 280 -112 0 0 -439 0 0zm-4366 1076l-114 20c-4,-22 -13,-40 -26,-51 -14,-11 -32,-17 -54,-17 -29,0 -51,10 -68,30 -18,20 -27,53 -27,100 0,53 9,89 27,111 17,21 41,33 69,33 23,0 41,-7 55,-19 14,-13 24,-35 30,-66l114 20c-12,52 -34,92 -68,119 -34,26 -78,40 -136,40 -63,0 -114,-20 -153,-61 -38,-41 -57,-97 -57,-168 0,-73 19,-129 57,-170 39,-40 90,-60 156,-60 53,0 96,11 127,33 32,24 55,59 68,106l0 0zm36 -130l397 0 0 94 -140 0 0 345 -116 0 0 -345 -141 0 0 -94zm553 135l-105 -18c12,-44 33,-75 61,-96 29,-20 72,-30 130,-30 51,0 89,5 115,17 25,13 44,29 54,48 10,18 15,53 15,103l-1 136c0,38 1,67 5,85 3,19 11,38 21,59l-115 0c-3,-8 -7,-19 -11,-34 -2,-7 -4,-11 -5,-13 -20,20 -41,33 -63,43 -23,10 -46,15 -73,15 -44,0 -79,-12 -105,-37 -26,-24 -40,-55 -40,-92 0,-25 6,-48 19,-68 11,-18 28,-33 49,-43 21,-11 53,-20 92,-27 54,-10 93,-20 114,-29l0 -13c0,-22 -7,-38 -18,-47 -11,-10 -32,-15 -62,-15 -21,0 -37,4 -49,13 -11,8 -21,22 -28,43l0 0zm157 94c-15,5 -39,11 -71,18 -33,6 -54,14 -64,20 -15,11 -22,25 -22,41 0,16 6,30 17,43 13,11 28,17 46,17 21,0 41,-8 61,-21 14,-10 23,-23 28,-39 2,-8 5,-28 5,-56l0 -23 0 0zm259 -229l389 0 0 439 -116 0 0 -345 -158 0 0 197c0,51 -6,86 -17,106 -11,21 -25,33 -39,41 -13,6 -37,8 -68,8 -18,0 -43,-2 -74,-7l0 -85c4,0 10,0 20,0 13,2 21,2 29,2 16,0 25,-5 29,-15 3,-10 4,-40 4,-86l0 -255 1 0zm750 301l116 18c-15,43 -39,75 -71,98 -33,22 -72,33 -121,33 -76,0 -132,-25 -169,-75 -29,-39 -44,-90 -44,-151 0,-74 20,-131 57,-172 39,-41 86,-61 145,-61 65,0 117,21 154,65 37,42 56,109 55,197l-291 0c1,35 10,61 28,81 18,19 40,29 66,29 19,0 34,-5 46,-15 13,-10 23,-26 29,-47zm6 -118c-1,-34 -9,-60 -26,-78 -16,-17 -36,-26 -60,-26 -25,0 -46,10 -63,28 -16,18 -24,44 -24,76l173 0zm212 -183l254 0c52,0 90,10 117,28 26,19 39,48 39,86 0,25 -7,46 -22,65 -14,17 -31,30 -53,36 31,7 53,21 68,42 15,20 22,43 22,67 0,34 -12,61 -37,83 -26,22 -62,32 -112,32l-276 0 0 -439 0 0zm115 183l75 0c37,0 64,-5 80,-14 16,-9 23,-24 23,-44 0,-18 -7,-31 -22,-40 -15,-7 -42,-11 -81,-11l-75 0 0 109 0 0zm0 181l93 0c33,0 57,-3 73,-11 15,-9 22,-22 22,-44 0,-21 -8,-36 -26,-44 -17,-8 -51,-13 -102,-13l-60 0 0 112zm404 -424l0 -107 115 0 0 107 -115 0zm0 499l0 -439 115 0 0 439 -115 0z"/>
  <path class="fil1" d="M3773 1552l-107 0 0 -65c-18,26 -40,45 -64,57 -24,13 -49,19 -74,19 -51,0 -93,-20 -129,-61 -36,-41 -55,-97 -55,-170 0,-75 17,-132 52,-171 36,-38 80,-57 133,-57 50,0 92,20 129,61l0 -219 115 0 0 606 0 0zm-310 -228c0,47 7,81 20,102 19,30 45,46 79,46 26,0 48,-12 67,-35 19,-22 29,-57 29,-102 0,-51 -9,-87 -28,-109 -18,-23 -41,-34 -69,-34 -28,0 -52,11 -70,34 -19,21 -28,55 -28,98l0 0zm679 90l115 18c-14,43 -38,75 -70,98 -32,22 -73,33 -120,33 -77,0 -133,-25 -170,-75 -29,-39 -43,-90 -43,-151 0,-74 19,-131 56,-172 39,-41 86,-61 145,-61 66,0 117,21 154,65 38,42 56,109 55,197l-292 0c2,35 12,61 29,81 17,19 40,29 67,29 18,0 33,-5 45,-15 13,-10 22,-26 29,-47l0 0zm6 -118c0,-34 -9,-60 -26,-78 -16,-17 -36,-26 -60,-26 -25,0 -46,10 -62,28 -18,18 -25,44 -25,76l173 0zm210 256l0 -606 116 0 0 606 -116 0zm208 -225c0,-39 10,-76 29,-112 20,-36 46,-64 81,-83 34,-19 73,-28 117,-28 66,0 120,21 163,65 42,42 63,97 63,163 0,67 -21,122 -63,165 -44,44 -97,66 -162,66 -41,0 -79,-9 -116,-27 -36,-19 -63,-45 -83,-80 -19,-36 -29,-78 -29,-129l0 0zm120 6c0,43 11,77 31,101 21,23 46,35 77,35 30,0 55,-12 76,-35 20,-24 30,-58 30,-101 0,-44 -10,-77 -30,-100 -21,-23 -46,-35 -76,-35 -31,0 -56,12 -77,35 -20,23 -31,56 -31,100zm825 219l-116 0 0 -224c0,-47 -3,-77 -8,-92 -5,-14 -13,-24 -24,-33 -12,-7 -25,-11 -42,-11 -19,0 -38,5 -54,16 -16,12 -26,27 -33,44 -6,19 -8,52 -8,102l0 198 -117 0 0 -439 108 0 0 64c39,-49 87,-73 146,-73 24,0 48,4 69,14 23,8 38,21 49,34 11,15 18,32 23,49 4,19 7,45 7,78l0 273 0 0zm105 29l134 16c2,15 7,26 15,32 11,8 28,13 52,13 31,0 53,-5 68,-14 10,-6 19,-16 24,-30 4,-10 5,-27 5,-54l1 -63c-35,47 -80,71 -132,71 -60,0 -107,-25 -140,-75 -28,-40 -41,-88 -41,-147 0,-73 17,-129 53,-169 35,-38 80,-57 132,-57 55,0 99,24 134,71l0 -62 109 0 0 394c0,51 -4,90 -13,116 -9,26 -20,46 -36,60 -15,15 -36,26 -61,34 -26,9 -58,13 -98,13 -75,0 -127,-13 -158,-39 -31,-25 -48,-57 -48,-97 0,-3 0,-8 0,-13l0 0zm105 -258c0,47 9,81 27,103 18,21 40,33 66,33 29,0 53,-12 73,-34 19,-22 29,-55 29,-98 0,-46 -10,-80 -28,-101 -19,-23 -43,-34 -71,-34 -28,0 -51,11 -69,33 -18,21 -27,54 -27,98l0 0zm424 -270l0 -107 116 0 0 107 -116 0zm0 499l0 -439 116 0 0 439 -116 0z"/>
 </g>
</svg>
