<?xml version="1.0" encoding="UTF-8"?>
<!DOCTYPE svg PUBLIC "-//W3C//DTD SVG 1.1//EN" "http://www.w3.org/Graphics/SVG/1.1/DTD/svg11.dtd">
<!-- Creator: CorelDRAW X7 -->
<svg xmlns="http://www.w3.org/2000/svg" xml:space="preserve" width="40.7327mm" height="15.9615mm" version="1.1" style="shape-rendering:geometricPrecision; text-rendering:geometricPrecision; image-rendering:optimizeQuality; fill-rule:evenodd; clip-rule:evenodd"
viewBox="0 0 4096 1605"
 xmlns:xlink="http://www.w3.org/1999/xlink">
 <defs>
  <style type="text/css">
   <![CDATA[
    .fil0 {fill:#FEFEFE;fill-rule:nonzero}
   ]]>
  </style>
 </defs>
 <g id="Слой_x0020_1">
  <metadata id="CorelCorpID_0Corel-Layer"/>
  <path class="fil0" d="M0 168l109 0 0 65c14,-23 32,-40 56,-54 25,-14 51,-20 82,-20 51,0 93,20 130,60 36,40 53,96 53,168 0,74 -18,131 -53,172 -37,42 -80,62 -132,62 -25,0 -46,-5 -66,-15 -20,-9 -41,-27 -63,-50l0 221 -116 0 0 -609 0 0zm114 214c0,50 10,86 30,110 20,24 44,36 71,36 28,0 50,-11 68,-32 19,-23 27,-58 27,-108 0,-46 -10,-81 -27,-104 -19,-22 -41,-34 -69,-34 -29,0 -53,12 -71,34 -19,21 -29,54 -29,98zm495 -78l-105 -19c12,-43 33,-75 62,-96 28,-20 72,-30 130,-30 51,0 90,5 116,17 25,13 43,29 54,48 10,19 15,54 15,104l-1 136c0,39 1,68 5,87 3,18 11,37 21,58l-116 0c-3,-7 -7,-18 -12,-33 -1,-8 -2,-12 -3,-14 -20,20 -42,34 -64,44 -23,10 -47,15 -73,15 -45,0 -81,-13 -106,-38 -26,-24 -40,-55 -40,-92 0,-26 6,-48 19,-68 11,-19 27,-34 50,-44 21,-11 51,-20 92,-27 54,-10 93,-20 113,-29l0 -13c0,-22 -5,-38 -16,-47 -12,-10 -33,-15 -63,-15 -21,0 -38,4 -49,12 -12,9 -21,23 -29,44l0 0zm157 94c-15,5 -38,11 -70,19 -33,6 -54,13 -64,20 -15,11 -23,25 -23,41 0,16 5,30 18,43 12,11 27,17 46,17 22,0 42,-7 62,-21 13,-10 22,-23 27,-39 3,-9 4,-29 4,-56l0 -24 0 0zm596 211l-335 0 0 117 -95 0 0 -212 48 0c20,-22 36,-57 50,-104 12,-47 20,-128 22,-242l357 0 0 346 48 0 0 212 -95 0 0 -117 0 0zm-68 -95l0 -250 -141 0c-5,123 -24,205 -59,250l200 0zm243 -406l0 -108 116 0 0 108 -116 0zm0 501l0 -441 116 0 0 441 -116 0zm324 -305l-107 -19c13,-43 33,-75 62,-96 30,-20 72,-30 130,-30 52,0 91,5 116,17 25,13 44,29 54,48 10,19 16,54 16,104l-2 136c0,39 2,68 6,87 4,18 10,37 20,58l-115 0c-4,-7 -7,-18 -11,-33 -3,-8 -4,-12 -5,-14 -19,20 -40,34 -64,44 -23,10 -46,15 -71,15 -47,0 -82,-13 -108,-38 -26,-24 -39,-55 -39,-92 0,-26 5,-48 18,-68 11,-19 28,-34 50,-44 21,-11 52,-20 92,-27 55,-10 93,-20 114,-29l0 -13c0,-22 -6,-38 -17,-47 -12,-10 -32,-15 -63,-15 -21,0 -37,4 -49,12 -11,9 -21,23 -27,44l0 0zm156 94c-15,5 -39,11 -71,19 -33,6 -54,13 -64,20 -15,11 -22,25 -22,41 0,16 6,30 17,43 13,11 29,17 48,17 20,0 41,-7 60,-21 13,-10 23,-23 27,-39 3,-9 5,-29 5,-56l0 -24 0 0zm177 -230l399 0 0 95 -142 0 0 346 -116 0 0 -346 -141 0 0 -95zm431 215c0,-39 9,-76 29,-113 19,-36 46,-64 82,-82 35,-20 73,-29 117,-29 66,0 122,21 164,65 43,43 64,98 64,164 0,67 -21,123 -65,166 -43,44 -98,67 -163,67 -40,0 -79,-9 -115,-28 -38,-19 -65,-45 -84,-80 -20,-36 -29,-79 -29,-130l0 0zm121 6c0,44 10,78 31,102 20,22 46,35 76,35 30,0 56,-13 76,-35 22,-24 32,-58 32,-102 0,-44 -10,-77 -32,-100 -20,-24 -46,-35 -76,-35 -30,0 -56,11 -76,35 -21,23 -31,56 -31,100zm424 -221l109 0 0 65c13,-23 32,-40 56,-54 25,-14 51,-20 81,-20 52,0 94,20 130,60 35,40 54,96 54,168 0,74 -19,131 -54,172 -36,42 -80,62 -131,62 -25,0 -46,-5 -66,-15 -20,-9 -42,-27 -63,-50l0 221 -116 0 0 -609 0 0zm114 214c0,50 10,86 30,110 20,24 43,36 71,36 28,0 50,-11 68,-32 18,-23 27,-58 27,-108 0,-46 -10,-81 -27,-104 -19,-22 -43,-34 -69,-34 -29,0 -53,12 -72,34 -18,21 -28,54 -28,98zm405 -214l113 0 0 277 179 -277 115 0 0 441 -113 0 0 -281 -181 281 -113 0 0 -441 0 0z"/>
  <path class="fil0" d="M881 1283l-115 20c-4,-22 -13,-40 -26,-51 -14,-11 -32,-17 -54,-17 -29,0 -51,10 -69,30 -18,20 -26,53 -26,101 0,53 8,89 26,111 17,22 41,33 70,33 23,0 41,-6 55,-19 14,-12 24,-35 30,-66l115 20c-12,52 -35,92 -69,120 -33,26 -78,40 -136,40 -64,0 -115,-20 -154,-61 -39,-42 -57,-98 -57,-169 0,-74 18,-130 57,-172 39,-40 90,-60 157,-60 53,0 96,11 127,34 33,24 55,59 69,106l0 0zm36 -131l399 0 0 95 -141 0 0 347 -116 0 0 -347 -142 0 0 -95zm556 136l-105 -18c11,-44 32,-75 61,-97 29,-20 73,-30 130,-30 52,0 90,5 117,18 25,12 43,28 53,47 10,19 15,54 15,104l-1 137c0,38 1,67 5,86 4,19 11,37 21,59l-115 0c-3,-8 -7,-19 -11,-34 -2,-8 -4,-11 -5,-14 -20,20 -41,34 -64,44 -22,10 -46,15 -72,15 -45,0 -80,-13 -107,-38 -26,-23 -40,-55 -40,-92 0,-25 7,-48 19,-68 11,-19 29,-34 50,-44 21,-11 53,-20 93,-27 54,-10 92,-20 114,-29l0 -12c0,-23 -7,-39 -18,-48 -11,-10 -32,-15 -62,-15 -22,0 -38,4 -49,13 -12,8 -22,22 -29,43l0 0zm158 94c-15,5 -39,11 -72,19 -32,6 -54,14 -64,20 -15,11 -22,25 -22,41 0,17 6,30 17,43 13,11 28,17 47,17 21,0 41,-7 61,-21 14,-10 23,-22 28,-39 2,-8 5,-28 5,-56l0 -24 0 0zm260 -230l392 0 0 442 -117 0 0 -347 -159 0 0 198c0,51 -6,86 -17,106 -12,21 -25,34 -39,41 -14,7 -38,9 -69,9 -17,0 -42,-2 -74,-7l0 -85c4,0 10,0 20,0 13,1 22,1 29,1 16,0 25,-5 29,-15 4,-10 5,-40 5,-87l0 -256 0 0zm754 303l117 19c-15,42 -39,75 -71,97 -33,23 -73,34 -122,34 -76,0 -133,-25 -170,-75 -29,-40 -44,-91 -44,-153 0,-74 20,-131 58,-172 38,-42 86,-62 145,-62 65,0 117,21 155,65 38,43 56,110 55,199l-293 0c2,35 10,62 29,82 18,18 40,28 66,28 19,0 34,-5 47,-15 12,-10 22,-26 28,-47zm7 -119c-2,-34 -9,-60 -27,-78 -16,-17 -36,-26 -60,-26 -25,0 -46,10 -63,28 -17,18 -24,45 -24,76l174 0zm212 -184l256 0c52,0 91,10 117,29 27,19 40,47 40,86 0,25 -7,46 -22,65 -14,18 -31,30 -54,36 31,8 54,22 69,43 15,20 22,43 22,68 0,33 -12,61 -37,82 -26,23 -63,33 -113,33l-278 0 0 -442 0 0zm117 184l75 0c37,0 64,-5 80,-14 16,-9 24,-24 24,-44 0,-18 -8,-31 -23,-40 -15,-7 -42,-11 -81,-11l-75 0 0 109 0 0zm0 183l92 0c34,0 58,-4 74,-12 15,-8 23,-22 23,-43 0,-22 -9,-37 -26,-45 -18,-8 -52,-13 -103,-13l-60 0 0 113zm405 -427l0 -108 117 0 0 108 -117 0zm0 502l0 -442 117 0 0 442 -117 0z"/>
 </g>
</svg>
