<?xml version="1.0" encoding="UTF-8"?>
<!DOCTYPE svg PUBLIC "-//W3C//DTD SVG 1.1//EN" "http://www.w3.org/Graphics/SVG/1.1/DTD/svg11.dtd">
<!-- Creator: CorelDRAW X7 -->
<svg xmlns="http://www.w3.org/2000/svg" xml:space="preserve" width="100.281mm" height="10.0007mm" version="1.1" style="shape-rendering:geometricPrecision; text-rendering:geometricPrecision; image-rendering:optimizeQuality; fill-rule:evenodd; clip-rule:evenodd"
viewBox="0 0 11559 1153"
 xmlns:xlink="http://www.w3.org/1999/xlink">
 <defs>
  <style type="text/css">
   <![CDATA[
    .str0 {stroke:#FEFEFE;stroke-width:230.536;stroke-linecap:round;stroke-linejoin:round}
    .fil0 {fill:none;fill-rule:nonzero}
    .fil2 {fill:#E31E24;fill-rule:nonzero}
    .fil1 {fill:#393185;fill-rule:nonzero}
   ]]>
  </style>
 </defs>
 <g id="Слой_x0020_1">
  <metadata id="CorelCorpID_0Corel-Layer"/>
  <g id="_692324528">
   <g>
    <path class="fil0 str0" d="M290 1023l-175 -893 152 0 109 614 133 -614 175 0 130 624 111 -624 149 0 -175 893 -158 0 -147 -668 -144 668 -160 0zm965 0l-175 -893 152 0 109 614 133 -614 175 0 129 624 112 -624 148 0 -174 893 -159 0 -146 -668 -144 668 -160 0zm964 0l-175 -893 152 0 110 614 132 -614 175 0 130 624 111 -624 149 0 -175 893 -158 0 -146 -668 -145 668 -160 0zm804 0l0 -171 139 0 0 171 -139 0zm6737 0l0 -171 140 0 0 171 -140 0zm286 -893l147 0 0 483c0,75 2,124 6,147 6,39 22,69 46,91 25,21 58,32 98,32 34,0 62,-8 84,-23 22,-15 36,-36 44,-63 8,-27 12,-85 12,-174l0 -493 147 0 0 469c0,119 -6,206 -19,259 -13,54 -42,97 -86,130 -45,33 -104,49 -178,49 -76,0 -136,-13 -179,-41 -43,-27 -74,-65 -93,-115 -20,-50 -29,-142 -29,-275l0 -476zm1398 893l-160 0 -63 -202 -294 0 -60 202 -157 0 284 -893 158 0 292 893zm-271 -353l-101 -331 -99 331 200 0z"/>
    <path id="1" class="fil1" d="M290 1023l-175 -893 152 0 109 614 133 -614 175 0 130 624 111 -624 149 0 -175 893 -158 0 -147 -668 -144 668 -160 0zm965 0l-175 -893 152 0 109 614 133 -614 175 0 129 624 112 -624 148 0 -174 893 -159 0 -146 -668 -144 668 -160 0zm964 0l-175 -893 152 0 110 614 132 -614 175 0 130 624 111 -624 149 0 -175 893 -158 0 -146 -668 -145 668 -160 0zm804 0l0 -171 139 0 0 171 -139 0zm6737 0l0 -171 140 0 0 171 -140 0zm286 -893l147 0 0 483c0,75 2,124 6,147 6,39 22,69 46,91 25,21 58,32 98,32 34,0 62,-8 84,-23 22,-15 36,-36 44,-63 8,-27 12,-85 12,-174l0 -493 147 0 0 469c0,119 -6,206 -19,259 -13,54 -42,97 -86,130 -45,33 -104,49 -178,49 -76,0 -136,-13 -179,-41 -43,-27 -74,-65 -93,-115 -20,-50 -29,-142 -29,-275l0 -476zm1398 893l-160 0 -63 -202 -294 0 -60 202 -157 0 284 -893 158 0 292 893zm-271 -353l-101 -331 -99 331 200 0z"/>
   </g>
   <g>
    <path class="fil0 str0" d="M3304 1023l0 -893 147 0 0 893 -147 0zm292 0l0 -893 143 0 301 596 0 -596 137 0 0 893 -148 0 -296 -582 0 582 -137 0zm698 -291l143 -17c16,114 70,170 160,170 45,0 80,-11 106,-34 25,-24 38,-53 38,-87 0,-20 -4,-37 -13,-52 -9,-14 -23,-26 -41,-35 -19,-9 -63,-24 -133,-46 -63,-19 -109,-39 -139,-61 -29,-23 -52,-52 -69,-88 -17,-37 -26,-76 -26,-117 0,-49 11,-93 33,-132 22,-39 53,-68 92,-88 39,-20 87,-30 145,-30 86,0 153,24 201,70 49,47 74,114 77,201l-148 7c-6,-47 -21,-81 -42,-100 -22,-19 -53,-28 -93,-28 -40,0 -70,8 -92,25 -21,16 -32,36 -32,61 0,24 10,44 29,60 20,17 65,35 135,56 75,21 128,44 161,68 33,24 59,54 76,92 17,37 26,83 26,136 0,78 -24,143 -71,195 -48,53 -123,79 -224,79 -179,0 -279,-101 -299,-305zm883 291l0 -742 -217 0 0 -151 581 0 0 151 -217 0 0 742 -147 0zm1045 0l-160 0 -63 -202 -294 0 -61 202 -157 0 285 -893 157 0 293 893zm-271 -353l-102 -331 -99 331 201 0zm351 353l0 -885 147 0 0 734 368 0 0 151 -515 0zm625 0l0 -885 147 0 0 734 367 0 0 151 -514 0zm622 0l0 -893 237 0c88,0 146,5 174,13 43,14 79,43 107,88 28,45 42,103 42,174 0,65 -12,119 -36,163 -24,43 -55,74 -92,91 -36,18 -99,27 -188,27l-97 0 0 337 -147 0zm147 -742l0 254 82 0c54,0 92,-4 112,-11 20,-8 36,-22 48,-42 13,-20 19,-45 19,-74 0,-30 -6,-55 -19,-76 -13,-20 -29,-34 -49,-41 -19,-6 -59,-10 -121,-10l-72 0zm534 742l0 -893 311 0c80,0 136,8 171,24 34,16 61,44 83,84 22,39 33,87 33,142 0,69 -17,126 -50,168 -33,43 -81,70 -143,81 32,22 58,47 79,74 21,27 49,76 85,145l89 175 -177 0 -107 -194c-38,-71 -64,-115 -78,-132 -14,-18 -29,-30 -44,-37 -16,-7 -40,-10 -74,-10l-31 0 0 373 -147 0zm147 -515l110 0c67,0 109,-3 128,-9 18,-6 33,-18 44,-36 12,-17 17,-41 17,-71 0,-29 -5,-51 -17,-69 -11,-17 -27,-29 -46,-35 -14,-5 -54,-7 -120,-7l-116 0 0 227zm561 74c0,-106 16,-194 47,-263 31,-68 72,-120 123,-153 51,-34 112,-51 184,-51 105,0 190,40 256,120 66,80 99,194 99,341 0,150 -35,266 -105,350 -61,74 -144,111 -249,111 -106,0 -190,-36 -251,-110 -69,-84 -104,-199 -104,-345zm152 -6c0,102 19,179 58,230 39,51 88,77 145,77 58,0 106,-25 144,-76 39,-51 58,-129 58,-234 0,-103 -19,-180 -56,-229 -37,-49 -86,-74 -146,-74 -60,0 -109,25 -147,74 -37,50 -56,127 -56,232z"/>
    <path id="1" class="fil2" d="M3304 1023l0 -893 147 0 0 893 -147 0zm292 0l0 -893 143 0 301 596 0 -596 137 0 0 893 -148 0 -296 -582 0 582 -137 0zm698 -291l143 -17c16,114 70,170 160,170 45,0 80,-11 106,-34 25,-24 38,-53 38,-87 0,-20 -4,-37 -13,-52 -9,-14 -23,-26 -41,-35 -19,-9 -63,-24 -133,-46 -63,-19 -109,-39 -139,-61 -29,-23 -52,-52 -69,-88 -17,-37 -26,-76 -26,-117 0,-49 11,-93 33,-132 22,-39 53,-68 92,-88 39,-20 87,-30 145,-30 86,0 153,24 201,70 49,47 74,114 77,201l-148 7c-6,-47 -21,-81 -42,-100 -22,-19 -53,-28 -93,-28 -40,0 -70,8 -92,25 -21,16 -32,36 -32,61 0,24 10,44 29,60 20,17 65,35 135,56 75,21 128,44 161,68 33,24 59,54 76,92 17,37 26,83 26,136 0,78 -24,143 -71,195 -48,53 -123,79 -224,79 -179,0 -279,-101 -299,-305zm883 291l0 -742 -217 0 0 -151 581 0 0 151 -217 0 0 742 -147 0zm1045 0l-160 0 -63 -202 -294 0 -61 202 -157 0 285 -893 157 0 293 893zm-271 -353l-102 -331 -99 331 201 0zm351 353l0 -885 147 0 0 734 368 0 0 151 -515 0zm625 0l0 -885 147 0 0 734 367 0 0 151 -514 0zm622 0l0 -893 237 0c88,0 146,5 174,13 43,14 79,43 107,88 28,45 42,103 42,174 0,65 -12,119 -36,163 -24,43 -55,74 -92,91 -36,18 -99,27 -188,27l-97 0 0 337 -147 0zm147 -742l0 254 82 0c54,0 92,-4 112,-11 20,-8 36,-22 48,-42 13,-20 19,-45 19,-74 0,-30 -6,-55 -19,-76 -13,-20 -29,-34 -49,-41 -19,-6 -59,-10 -121,-10l-72 0zm534 742l0 -893 311 0c80,0 136,8 171,24 34,16 61,44 83,84 22,39 33,87 33,142 0,69 -17,126 -50,168 -33,43 -81,70 -143,81 32,22 58,47 79,74 21,27 49,76 85,145l89 175 -177 0 -107 -194c-38,-71 -64,-115 -78,-132 -14,-18 -29,-30 -44,-37 -16,-7 -40,-10 -74,-10l-31 0 0 373 -147 0zm147 -515l110 0c67,0 109,-3 128,-9 18,-6 33,-18 44,-36 12,-17 17,-41 17,-71 0,-29 -5,-51 -17,-69 -11,-17 -27,-29 -46,-35 -14,-5 -54,-7 -120,-7l-116 0 0 227zm561 74c0,-106 16,-194 47,-263 31,-68 72,-120 123,-153 51,-34 112,-51 184,-51 105,0 190,40 256,120 66,80 99,194 99,341 0,150 -35,266 -105,350 -61,74 -144,111 -249,111 -106,0 -190,-36 -251,-110 -69,-84 -104,-199 -104,-345zm152 -6c0,102 19,179 58,230 39,51 88,77 145,77 58,0 106,-25 144,-76 39,-51 58,-129 58,-234 0,-103 -19,-180 -56,-229 -37,-49 -86,-74 -146,-74 -60,0 -109,25 -147,74 -37,50 -56,127 -56,232z"/>
   </g>
  </g>
 </g>
</svg>
