<?xml version="1.0" encoding="UTF-8"?>
<!DOCTYPE svg PUBLIC "-//W3C//DTD SVG 1.1//EN" "http://www.w3.org/Graphics/SVG/1.1/DTD/svg11.dtd">
<!-- Creator: CorelDRAW X7 -->
<svg xmlns="http://www.w3.org/2000/svg" xml:space="preserve" width="103.514mm" height="8.9662mm" version="1.1" style="shape-rendering:geometricPrecision; text-rendering:geometricPrecision; image-rendering:optimizeQuality; fill-rule:evenodd; clip-rule:evenodd"
viewBox="0 0 11689 1012"
 xmlns:xlink="http://www.w3.org/1999/xlink">
 <defs>
  <style type="text/css">
   <![CDATA[
    .fil0 {fill:#FEFEFE;fill-rule:nonzero}
   ]]>
  </style>
 </defs>
 <g id="Слой_x0020_1">
  <metadata id="CorelCorpID_0Corel-Layer"/>
  <path class="fil0" d="M166 853l0 -569 -166 0 0 -116 446 0 0 116 -167 0 0 569 -113 0zm349 0l0 -685 113 0 0 685 -113 0zm542 0l0 -569 -168 0 0 293c0,76 -2,132 -7,169 -4,36 -15,64 -33,83 -17,19 -46,29 -85,29 -12,0 -36,-2 -72,-5l0 -108 25 0c24,0 40,-4 48,-12 7,-8 11,-28 11,-59l0 -506 394 0 0 685 -113 0zm233 0l0 -685 113 0 0 273 160 0c60,0 108,19 143,57 35,39 52,89 52,152 0,52 -14,98 -42,140 -29,42 -79,63 -151,63l-275 0zm113 -297l0 181 119 0c31,0 54,-2 68,-6 13,-4 26,-14 36,-30 10,-15 16,-33 16,-54 0,-60 -39,-91 -115,-91l-124 0zm451 297l0 -685 113 0 0 292c25,-3 42,-12 52,-26 10,-14 23,-47 39,-100 15,-53 32,-91 49,-115 17,-24 35,-39 55,-44 19,-6 52,-9 99,-12l0 103 -16 0c-31,0 -53,7 -64,22 -11,15 -23,44 -36,86 -12,42 -22,70 -31,84 -8,14 -22,28 -41,42 25,10 45,27 61,50 15,23 34,61 56,116l77 187 -133 0 -68 -177c-17,-45 -32,-77 -44,-95 -12,-18 -31,-27 -55,-27l0 299 -113 0zm477 0l0 -685 108 0 0 456 226 -456 114 0 0 685 -108 0 0 -447 -225 447 -115 0zm862 0l-75 0 0 -685 441 0 0 685 -74 0 0 -604 -292 0 0 604zm488 0l0 -685 212 0c50,0 86,5 110,13 33,12 58,34 78,66 19,32 29,71 29,118 0,61 -16,112 -47,150 -32,39 -86,59 -163,59l-144 0 0 279 -75 0zm75 -360l145 0c46,0 79,-10 100,-31 22,-20 32,-52 32,-93 0,-28 -5,-51 -15,-70 -11,-19 -24,-33 -38,-40 -15,-7 -42,-10 -80,-10l-144 0 0 244zm428 27c0,-117 26,-207 77,-269 52,-63 116,-94 192,-94 50,0 95,14 136,42 40,28 73,68 97,122 23,53 35,117 35,190 0,101 -23,184 -69,248 -51,70 -117,105 -199,105 -83,0 -150,-36 -200,-108 -46,-65 -69,-144 -69,-236zm77 1c0,84 18,150 55,196 38,47 83,70 136,70 55,0 100,-24 137,-71 37,-47 56,-116 56,-207 0,-59 -10,-111 -29,-158 -14,-35 -36,-64 -66,-85 -29,-21 -61,-32 -96,-32 -56,0 -103,23 -139,70 -36,47 -54,119 -54,217zm756 -271l0 -82 70 0 0 82c71,5 127,31 169,79 41,48 62,107 62,178 0,72 -20,131 -61,179 -42,48 -98,74 -170,79l0 88 -70 0 0 -88c-67,-3 -122,-28 -166,-74 -44,-46 -66,-108 -66,-184 0,-76 22,-137 66,-183 44,-46 99,-70 166,-74zm70 78l0 359c45,-3 83,-19 111,-49 29,-29 44,-73 44,-130 0,-55 -14,-97 -42,-129 -27,-31 -65,-48 -113,-51zm-70 0c-47,2 -84,19 -113,50 -29,32 -43,75 -43,130 0,55 14,98 43,129 29,31 66,48 113,50l0 -359zm395 525l0 -685 405 0 0 81 -331 0 0 210 311 0 0 80 -311 0 0 233 345 0 0 81 -419 0zm919 -240l75 23c-16,77 -45,134 -87,172 -41,37 -91,56 -150,56 -52,0 -97,-12 -134,-38 -36,-25 -66,-66 -90,-122 -23,-56 -35,-122 -35,-198 0,-75 12,-139 35,-191 24,-52 55,-92 96,-118 40,-27 85,-40 134,-40 54,0 101,17 140,50 39,34 66,83 81,149l-72 21c-25,-95 -75,-143 -150,-143 -38,0 -70,10 -98,29 -27,19 -49,49 -65,89 -17,41 -25,92 -25,154 0,93 17,164 50,211 33,46 77,70 131,70 41,0 76,-15 105,-43 30,-29 49,-73 59,-131zm182 240l0 -685 74 0 0 685 -74 0zm204 -685l67 0 0 544 301 -544 74 0 0 685 -67 0 0 -545 -301 545 -74 0 0 -685zm298 -168l47 0c-4,40 -17,71 -37,91 -20,20 -46,30 -77,30 -31,0 -57,-10 -77,-30 -20,-20 -32,-51 -36,-91l47 0c7,42 29,63 64,63 20,0 36,-5 47,-15 11,-10 18,-26 22,-48zm265 853l0 -685 74 0 0 282 292 0 0 -282 75 0 0 685 -75 0 0 -322 -292 0 0 322 -74 0zm567 -685l67 0 0 544 300 -544 74 0 0 685 -67 0 0 -545 -300 545 -74 0 0 -685zm563 0l67 0 0 544 300 -544 75 0 0 685 -67 0 0 -545 -301 545 -74 0 0 -685zm297 -168l47 0c-4,40 -16,71 -36,91 -20,20 -46,30 -77,30 -31,0 -57,-10 -77,-30 -20,-20 -32,-51 -36,-91l47 0c7,42 28,63 64,63 20,0 35,-5 46,-15 11,-10 19,-26 22,-48zm561 853l-75 0 0 -685 441 0 0 685 -74 0 0 -604 -292 0 0 604zm503 0l0 -685 74 0 0 685 -74 0zm255 -685l341 0 0 604 50 0 0 240 -66 0 0 -159 -371 0 0 159 -66 0 0 -240 43 0c46,-82 69,-250 69,-504l0 -100zm267 81l-195 0 0 35c0,57 -4,136 -13,237 -8,101 -25,184 -51,251l259 0 0 -523zm156 604l217 -356 -191 -329 89 0 102 175c21,36 36,64 44,84 12,-23 27,-49 45,-76l112 -183 81 0 -196 322 211 363 -91 0 -142 -244c-8,-14 -16,-29 -24,-45 -12,25 -21,41 -27,51l-141 238 -89 0zm593 0l0 -685 75 0 0 685 -75 0zm256 -685l341 0 0 604 50 0 0 240 -66 0 0 -159 -371 0 0 159 -66 0 0 -240 43 0c46,-82 69,-250 69,-504l0 -100zm266 81l-195 0 0 35c0,57 -4,136 -12,237 -9,101 -26,184 -52,251l259 0 0 -523z"/>
 </g>
</svg>
